<?xml version="1.0" encoding="utf-8"?>
<!-- Generator: Adobe Illustrator 19.0.0, SVG Export Plug-In . SVG Version: 6.00 Build 0)  -->
<svg version="1.1" id="Capa_1" xmlns="http://www.w3.org/2000/svg" xmlns:xlink="http://www.w3.org/1999/xlink" x="0px" y="0px"
	 viewBox="0 0 42.2 50" style="enable-background:new 0 0 42.2 50;" xml:space="preserve">
<g id="XMLID_1920_">
	<path fill="white" id="XMLID_1927_" d="M38.3,40.3V1c0-0.5-0.4-1-1-1H1C0.4,0,0,0.4,0,1v44.1v0C0,47.8,2.2,50,4.9,50c0,0,0,0,0,0h32.4
		c0,0,0,0,0,0c2.7,0,4.9-2.2,4.9-4.9C42.2,42.7,40.5,40.8,38.3,40.3L38.3,40.3z M29.2,2h7.1v2.3h-7.1V2z M29.2,6.2h7.1v34.1h-7.1
		V6.2z M20.1,2h7.1v2.3h-0.8c-0.5,0-1,0.4-1,1s0.4,1,1,1h0.8v34.1h-7.1V2z M11,2h7.1v38.3H11V2z M7.8,45.3C7.7,46.8,6.5,48,4.9,48h0
		c0,0,0,0,0,0C3.3,48,2,46.7,2,45.1v0V2h7.1v38.3H4.9h0c0,0,0,0,0,0c-0.5,0-1,0.4-1,1c0,0.5,0.4,1,1,1c0,0,0.1,0,0.1,0
		c0,0,0,0,0.1,0c0,0,0,0,0.1,0c0,0,0.1,0,0.1,0c0,0,0,0,0.1,0c0,0,0.1,0,0.1,0c0,0,0,0,0,0c0,0,0.1,0,0.1,0c0,0,0,0,0,0
		c1.3,0.3,2.2,1.4,2.3,2.7c0,0.1,0,0.1,0,0.2C7.8,45.2,7.8,45.2,7.8,45.3L7.8,45.3z M37.3,48C37.3,48,37.3,48,37.3,48L8.8,48
		c0,0,0.1-0.1,0.1-0.1c0,0,0,0,0,0c0,0,0.1-0.1,0.1-0.1c0,0,0,0,0,0c0,0,0.1-0.1,0.1-0.1c0,0,0,0,0-0.1c0,0,0-0.1,0.1-0.1
		c0,0,0,0,0,0c0-0.1,0.1-0.2,0.1-0.3c0,0,0,0,0-0.1c0,0,0-0.1,0-0.1c0,0,0-0.1,0-0.1c0,0,0-0.1,0-0.1c0,0,0-0.1,0-0.1
		c0,0,0-0.1,0-0.1c0,0,0-0.1,0-0.1c0,0,0-0.1,0-0.1c0-0.1,0-0.1,0-0.2c0,0,0,0,0,0h4.1c0.5,0,1-0.4,1-1c0-0.5-0.4-1-1-1H9.7
		c0,0,0,0,0,0c0-0.1,0-0.1,0-0.2c0,0,0-0.1,0-0.1c0,0,0-0.1,0-0.1c0,0,0-0.1,0-0.1c0,0,0-0.1,0-0.1c0,0,0-0.1,0-0.1c0,0,0-0.1,0-0.1
		c0,0,0-0.1,0-0.1c0,0,0,0,0-0.1c0-0.1-0.1-0.2-0.1-0.3c0,0,0,0,0,0c0,0,0-0.1-0.1-0.1c0,0,0,0,0-0.1c0,0,0-0.1-0.1-0.1
		c0,0,0,0,0-0.1c0,0-0.1-0.1-0.1-0.1c0,0,0,0,0,0c0,0-0.1-0.1-0.1-0.1h28.5c0,0,0,0,0,0l0,0c1.6,0,2.9,1.3,2.9,2.9
		C40.2,46.7,38.9,48,37.3,48L37.3,48z M37.3,48"/>
	<path fill="white" id="XMLID_1924_" d="M16.6,44.1L16.6,44.1c-0.6,0-1,0.4-1,1c0,0.5,0.4,1,1,1h0c0.5,0,1-0.4,1-1C17.6,44.6,17.1,44.1,16.6,44.1
		L16.6,44.1z M16.6,44.1"/>
	<path fill="white" id="XMLID_1921_" d="M23.7,4.2L23.7,4.2c-0.6,0-1,0.4-1,1s0.4,1,1,1h0c0.5,0,1-0.4,1-1S24.2,4.2,23.7,4.2L23.7,4.2z M23.7,4.2
		"/>
</g>
</svg>
