<?xml version="1.0" encoding="utf-8"?>
<!-- Generator: Adobe Illustrator 19.0.0, SVG Export Plug-In . SVG Version: 6.00 Build 0)  -->
<svg version="1.1" id="Capa_1" xmlns="http://www.w3.org/2000/svg" xmlns:xlink="http://www.w3.org/1999/xlink" x="0px" y="0px"
	 viewBox="0 0 50 50" style="enable-background:new 0 0 50 50;" xml:space="preserve">
<g id="XMLID_339_">
	<path fill="white" id="XMLID_392_" d="M16.7,10c0,0.9-0.7,1.7-1.7,1.7c-0.9,0-1.7-0.7-1.7-1.7c0-0.9,0.7-1.7,1.7-1.7C15.9,8.3,16.7,9.1,16.7,10
		L16.7,10z M16.7,10"/>
	<path fill="white" id="XMLID_2054_" d="M26.7,10c0,0.9-0.7,1.7-1.7,1.7c-0.9,0-1.7-0.7-1.7-1.7c0-0.9,0.7-1.7,1.7-1.7C25.9,8.3,26.7,9.1,26.7,10
		L26.7,10z M26.7,10"/>
	<path fill="white" id="XMLID_2051_" d="M21.7,16.7c0,0.9-0.7,1.7-1.7,1.7c-0.9,0-1.7-0.7-1.7-1.7c0-0.9,0.7-1.7,1.7-1.7
		C20.9,15,21.7,15.7,21.7,16.7L21.7,16.7z M21.7,16.7"/>
	<path fill="white" id="XMLID_2048_" d="M31.7,16.7c0,0.9-0.7,1.7-1.7,1.7c-0.9,0-1.7-0.7-1.7-1.7c0-0.9,0.7-1.7,1.7-1.7
		C30.9,15,31.7,15.7,31.7,16.7L31.7,16.7z M31.7,16.7"/>
	<path fill="white" id="XMLID_2045_" d="M36.7,10c0,0.9-0.7,1.7-1.7,1.7c-0.9,0-1.7-0.7-1.7-1.7c0-0.9,0.7-1.7,1.7-1.7C35.9,8.3,36.7,9.1,36.7,10
		L36.7,10z M36.7,10"/>
	<path fill="white" id="XMLID_2042_" d="M42.5,36.7h-3.3c-0.5,0-0.8,0.4-0.8,0.8c0,0.5,0.4,0.8,0.8,0.8h3.3c0.5,0,0.8-0.4,0.8-0.8
		C43.3,37,43,36.7,42.5,36.7L42.5,36.7z M42.5,36.7"/>
	<path fill="white" id="XMLID_2039_" d="M8.3,28.3c-0.5,0-0.8,0.4-0.8,0.8v1.7c0,0.5,0.4,0.8,0.8,0.8c0.5,0,0.8-0.4,0.8-0.8v-1.7
		C9.2,28.7,8.8,28.3,8.3,28.3L8.3,28.3z M8.3,28.3"/>
	<path fill="white" id="XMLID_2036_" d="M12.5,28.3c-0.5,0-0.8,0.4-0.8,0.8v1.7c0,0.5,0.4,0.8,0.8,0.8s0.8-0.4,0.8-0.8v-1.7
		C13.3,28.7,13,28.3,12.5,28.3L12.5,28.3z M12.5,28.3"/>
	<path fill="white" id="XMLID_2033_" d="M16.7,28.3c-0.5,0-0.8,0.4-0.8,0.8v1.7c0,0.5,0.4,0.8,0.8,0.8s0.8-0.4,0.8-0.8v-1.7
		C17.5,28.7,17.1,28.3,16.7,28.3L16.7,28.3z M16.7,28.3"/>
	<path fill="white" id="XMLID_2030_" d="M20.8,28.3c-0.5,0-0.8,0.4-0.8,0.8v1.7c0,0.5,0.4,0.8,0.8,0.8s0.8-0.4,0.8-0.8v-1.7
		C21.7,28.7,21.3,28.3,20.8,28.3L20.8,28.3z M20.8,28.3"/>
	<path fill="white" id="XMLID_388_" d="M25,28.3c-0.5,0-0.8,0.4-0.8,0.8v1.7c0,0.5,0.4,0.8,0.8,0.8c0.5,0,0.8-0.4,0.8-0.8v-1.7
		C25.8,28.7,25.5,28.3,25,28.3L25,28.3z M25,28.3"/>
	<path fill="white" id="XMLID_367_" d="M29.2,28.3c-0.5,0-0.8,0.4-0.8,0.8v1.7c0,0.5,0.4,0.8,0.8,0.8s0.8-0.4,0.8-0.8v-1.7
		C30,28.7,29.6,28.3,29.2,28.3L29.2,28.3z M29.2,28.3"/>
	<path fill="white" id="XMLID_2021_" d="M33.3,28.3c-0.5,0-0.8,0.4-0.8,0.8v1.7c0,0.5,0.4,0.8,0.8,0.8s0.8-0.4,0.8-0.8v-1.7
		C34.2,28.7,33.8,28.3,33.3,28.3L33.3,28.3z M33.3,28.3"/>
	<path fill="white" id="XMLID_2018_" d="M37.5,28.3c-0.5,0-0.8,0.4-0.8,0.8v1.7c0,0.5,0.4,0.8,0.8,0.8c0.5,0,0.8-0.4,0.8-0.8v-1.7
		C38.3,28.7,38,28.3,37.5,28.3L37.5,28.3z M37.5,28.3"/>
	<path fill="white" id="XMLID_2015_" d="M41.7,28.3c-0.5,0-0.8,0.4-0.8,0.8v1.7c0,0.5,0.4,0.8,0.8,0.8c0.5,0,0.8-0.4,0.8-0.8v-1.7
		C42.5,28.7,42.1,28.3,41.7,28.3L41.7,28.3z M41.7,28.3"/>
	<path fill="white" id="XMLID_361_" d="M45.8,16.7h-2.5V7.5C43.3,3.4,40,0,35.8,0H14.2C10,0,6.7,3.4,6.7,7.5v9.2H4.2c-2.3,0-4.2,1.9-4.2,4.2v15
		c0,1.4,1.1,2.5,2.5,2.5h0.8v0.8c0,1.4,1.1,2.5,2.5,2.5h2.4l-0.6,5.9c-0.1,1.2,0.8,2.3,2,2.4c1,0.1,2-0.5,2.3-1.6l2-6.8h22.9l2,6.8
		c0.3,1.2,1.6,1.8,2.7,1.5c1-0.3,1.7-1.3,1.6-2.3l-0.6-5.9h1.6c1.4,0,2.5-1.1,2.5-2.5v-0.8h0.8c1.4,0,2.5-1.1,2.5-2.5v-15
		C50,18.5,48.1,16.7,45.8,16.7L45.8,16.7z M8.3,7.5c0-3.2,2.6-5.8,5.8-5.8h21.7c3.2,0,5.8,2.6,5.8,5.8v9.3c-1,0.4-1.7,1.3-1.7,2.3
		V25H10v-5.8c0-1.1-0.7-2-1.7-2.3V7.5z M3.3,27.5v9.2H2.5c-0.5,0-0.8-0.4-0.8-0.8v-15c0-1.4,1.1-2.5,2.5-2.5h3.3
		c0.5,0,0.8,0.4,0.8,0.8V25H5.8C4.5,25,3.3,26.1,3.3,27.5L3.3,27.5z M10.3,48c-0.1,0.2-0.3,0.4-0.5,0.4c-0.3,0-0.5-0.2-0.5-0.5
		c0,0,0,0,0-0.1l0.6-6.1h2.3L10.3,48z M41.1,48.3C41,48.3,41,48.3,41.1,48.3c-0.3,0-0.5-0.1-0.5-0.4l-1.9-6.3h2.3l0.6,6.1
		C41.6,48,41.3,48.3,41.1,48.3L41.1,48.3z M45,39.2c0,0.5-0.4,0.8-0.8,0.8H5.8C5.4,40,5,39.6,5,39.2v-0.8h30.8
		c0.5,0,0.8-0.4,0.8-0.8c0-0.5-0.4-0.8-0.8-0.8H5v-9.2c0-0.5,0.4-0.8,0.8-0.8h38.3c0.5,0,0.8,0.4,0.8,0.8V39.2z M48.3,35.8
		c0,0.5-0.4,0.8-0.8,0.8h-0.8v-9.2c0-1.4-1.1-2.5-2.5-2.5h-2.5v-5.8c0-0.5,0.4-0.8,0.8-0.8h3.3c1.4,0,2.5,1.1,2.5,2.5V35.8z
		 M48.3,35.8"/>
</g>
</svg>
