<?xml version="1.0" encoding="utf-8"?>
<!-- Generator: Adobe Illustrator 19.0.0, SVG Export Plug-In . SVG Version: 6.00 Build 0)  -->
<svg version="1.1" id="Capa_1" xmlns="http://www.w3.org/2000/svg" xmlns:xlink="http://www.w3.org/1999/xlink" x="0px" y="0px"
	 viewBox="0 0 50 46.6" style="enable-background:new 0 0 50 46.6;" xml:space="preserve">
<g id="XMLID_1958_">
	<path fill="white" id="XMLID_1977_" d="M15.1,37.3L15.1,37.3c-0.6,0-1,0.4-1,1c0,0.5,0.4,1,1,1h0c0.5,0,1-0.4,1-1C16,37.8,15.6,37.3,15.1,37.3
		L15.1,37.3z M15.1,37.3"/>
	<path fill="white" id="XMLID_1974_" d="M12.2,37.3h-5c-0.5,0-1,0.4-1,1c0,0.5,0.4,1,1,1h5c0.5,0,1-0.4,1-1C13.2,37.8,12.8,37.3,12.2,37.3
		L12.2,37.3z M12.2,37.3"/>
	<path fill="white" id="XMLID_1969_" d="M49,41.2H36.7c1.4-1.3,2.3-3.2,2.3-5.3V11.7l3.9-3.9c0.2-0.2,0.3-0.4,0.3-0.7c0-0.3-0.1-0.5-0.3-0.7
		l-6.2-6.2c-0.4-0.4-1-0.4-1.4,0l-3.9,3.9H7.3c-4,0-7.3,3.3-7.3,7.3v24.5c0,4,3.3,7.3,7.3,7.3H48v2.4c0,0.5,0.4,1,1,1
		c0.5,0,1-0.4,1-1v-3.4C50,41.7,49.6,41.2,49,41.2L49,41.2z M36,2.4l4.8,4.8l-2.1,2.1C38,7,36.2,5.2,33.9,4.5L36,2.4z M31.8,41.2
		H7.3c-2.9,0-5.3-2.4-5.3-5.3V11.4c0-2.9,2.4-5.3,5.3-5.3h24.5c2.9,0,5.3,2.4,5.3,5.3v24.5C37.1,38.8,34.7,41.2,31.8,41.2L31.8,41.2
		z M31.8,41.2"/>
	<path fill="white" id="XMLID_1966_" d="M22.6,10.8c-0.5-0.1-1.1,0.2-1.2,0.7c-0.1,0.5,0.2,1.1,0.7,1.2c3,0.7,5.6,2.6,7.1,5.3
		c0.2,0.3,0.5,0.5,0.8,0.5c0.2,0,0.3,0,0.5-0.1c0.5-0.3,0.6-0.9,0.4-1.3C29.1,14,26.1,11.7,22.6,10.8L22.6,10.8z M22.6,10.8"/>
	<path fill="white" id="XMLID_1962_" d="M19.5,14.4c-5.1,0-9.3,4.2-9.3,9.3s4.2,9.3,9.3,9.3s9.3-4.2,9.3-9.3S24.6,14.4,19.5,14.4L19.5,14.4z
		 M19.5,31c-4,0-7.3-3.3-7.3-7.3c0-4,3.3-7.3,7.3-7.3c4,0,7.3,3.3,7.3,7.3C26.8,27.7,23.5,31,19.5,31L19.5,31z M19.5,31"/>
	<path fill="white" id="XMLID_1959_" d="M19.5,12.4L19.5,12.4c0.6,0,1-0.4,1-1c0-0.5-0.4-1-1-1h0c-0.5,0-1,0.4-1,1C18.5,12,19,12.4,19.5,12.4
		L19.5,12.4z M19.5,12.4"/>
</g>
</svg>
