<?xml version="1.0" encoding="utf-8"?>
<!-- Generator: Adobe Illustrator 19.0.0, SVG Export Plug-In . SVG Version: 6.00 Build 0)  -->
<svg version="1.1" id="Capa_1" xmlns="http://www.w3.org/2000/svg" xmlns:xlink="http://www.w3.org/1999/xlink" x="0px" y="0px"
	 viewBox="0 0 50 57" style="enable-background:new 0 0 50 57;" xml:space="preserve">
<g id="XMLID_5354_">
	<path id="XMLID_5380_" d="M10.8,14.5c0.2,0.1,0.3,0.1,0.5,0.1c0.4,0,0.8-0.2,1-0.6l0,0c0.3-0.5,0.1-1.2-0.5-1.5
		c-0.5-0.3-1.2-0.1-1.5,0.5l0,0.1C10.1,13.5,10.3,14.2,10.8,14.5L10.8,14.5z M10.8,14.5"/>
	<path id="XMLID_5358_" d="M48.6,22.9V20c0-1.8-1.4-3.3-3.2-3.4c-0.5-3.6-2.2-7.1-4.9-9.9c-2.8-2.9-6.2-4.7-9.9-5.1V1.1
		c0-0.6-0.5-1.1-1.1-1.1h-9.1c-0.6,0-1.1,0.5-1.1,1.1v0.6C15.7,2,12.2,3.8,9.4,6.7c-2.6,2.8-4.4,6.3-4.9,9.9
		c-1.8,0.1-3.2,1.6-3.2,3.4v3C0.3,24,0,24.9,0,25.7c0,2,2,3.6,4.5,4c0.2,1.9,0.5,3.8,0.8,5.5c-0.4,0.2-0.7,0.6-0.7,1
		c0,0.6,0.5,1.1,1.1,1.1c0,0.1,0,0.2,0.1,0.4c0.2,0.8,0.3,1.5,0.4,2c0.8,4.8,1.5,7.3,2.6,9.1c1.1,1.9,2.6,2.8,4.6,4.1
		c0.6,0.4,1.3,0.8,2.1,1.3l0.1,0c3.1,1.8,6.3,2.7,9.5,2.7h0c3.2,0,6.4-0.9,9.5-2.7l0.1,0c0.8-0.5,1.5-1,2.1-1.3
		c2-1.3,3.5-2.2,4.6-4.1c1.1-1.8,1.8-4.3,2.6-9.1c0.1-0.5,0.2-1.2,0.4-2c0-0.1,0-0.2,0.1-0.4c0.6,0,1.1-0.5,1.1-1.1
		c0-0.5-0.3-0.9-0.7-1c0.3-1.7,0.6-3.6,0.8-5.5c1-0.1,1.9-0.5,2.7-1c1.2-0.8,1.9-1.9,1.9-3C50,24.9,49.7,23.9,48.6,22.9L48.6,22.9z
		 M30.6,3.9c7,0.8,12.2,7.7,12.6,13.9c0,0.6,0.5,1,1.1,1h0.8c0.6,0,1.2,0.5,1.2,1.2v1.5c-0.6-0.3-1.3-0.5-2.1-0.8
		c-3.3-1-7.8-1.7-13.6-1.9V3.9z M21.5,2.2h6.9v16.5c-1.1,0-2.2,0-3.3,0c-1.2,0-2.4,0-3.6,0V2.2z M4.7,18.8h0.8c0.6,0,1.1-0.5,1.1-1
		c0.4-6.1,5.6-13,12.6-13.9v2.2c-2.5,0.4-5,1.7-6.9,3.9c-0.4,0.5-0.4,1.2,0.1,1.6c0.2,0.2,0.5,0.3,0.7,0.3c0.3,0,0.6-0.1,0.8-0.4
		c1.5-1.7,3.4-2.8,5.3-3.2v10.4c-5.7,0.3-10.2,0.9-13.5,1.9c-0.9,0.3-1.6,0.6-2.2,0.9V20C3.6,19.4,4.1,18.8,4.7,18.8L4.7,18.8z
		 M41.6,39.3c-1.4,8.7-2.4,9.3-6.2,11.7c-0.6,0.4-1.3,0.8-2.1,1.4c-5.5,3.2-11.1,3.2-16.7,0c-0.8-0.5-1.5-1-2.1-1.4
		c-3.8-2.4-4.8-3-6.2-11.7c-0.1-0.5-0.2-1.2-0.4-2h2c0.5,3.4,3.5,6,7.1,6c3.6,0,6.5-2.6,7.1-6h1.8c0.5,3.4,3.5,6,7.1,6
		c3.6,0,6.5-2.6,7.1-6h2C41.8,38.1,41.7,38.7,41.6,39.3L41.6,39.3z M21.9,36.2c0,2.7-2.2,4.9-4.9,4.9c-2.7,0-4.9-2.2-4.9-4.9
		c0-2.7,2.2-4.9,4.9-4.9C19.7,31.2,21.9,33.5,21.9,36.2C21.9,36.2,21.9,36.2,21.9,36.2C21.9,36.2,21.9,36.2,21.9,36.2L21.9,36.2z
		 M37.8,36.2c0,2.7-2.2,4.9-4.9,4.9c-2.7,0-4.9-2.2-4.9-4.9c0-2.7,2.2-4.9,4.9-4.9C35.6,31.2,37.8,33.5,37.8,36.2
		C37.8,36.2,37.8,36.2,37.8,36.2C37.8,36.2,37.8,36.2,37.8,36.2L37.8,36.2z M42.4,35.1H40c-0.5-3.4-3.5-6-7.1-6
		c-3.6,0-6.5,2.6-7.1,6H24c-0.5-3.4-3.5-6-7.1-6c-3.6,0-6.5,2.6-7.1,6H7.5c-0.3-1.8-0.6-3.7-0.8-5.7c5.9-2.1,12-3.2,18.2-3.2
		c6.2,0,12.4,1.1,18.2,3.2C43,31.3,42.7,33.3,42.4,35.1L42.4,35.1z M44.5,27.5C38.2,25.2,31.7,24,25,24c-6.7,0-13.3,1.2-19.6,3.5
		c-1.8-0.1-3.2-1-3.2-1.8c0-0.7,1.1-1.9,4.2-2.8c4-1.3,10.5-1.9,18.6-1.9c13.7,0,19.5,1.8,21.6,3.3c0.1,0.1,0.1,0.1,0.2,0.1
		c0.6,0.5,0.9,0.9,0.9,1.3C47.8,26.5,46.3,27.5,44.5,27.5L44.5,27.5z M44.5,27.5"/>
</g>
</svg>
