<?xml version="1.0" encoding="utf-8"?>
<!-- Generator: Adobe Illustrator 19.0.0, SVG Export Plug-In . SVG Version: 6.00 Build 0)  -->
<svg version="1.1" id="Capa_1" xmlns="http://www.w3.org/2000/svg" xmlns:xlink="http://www.w3.org/1999/xlink" x="0px" y="0px"
	 viewBox="0 0 76.6 70" style="enable-background:new 0 0 76.6 70;" xml:space="preserve">
<path id="XMLID_3022_" d="M76.5,27.7L70.1,0.9C70,0.4,69.5,0,68.9,0H7.7C7.1,0,6.6,0.4,6.5,0.9L0,27.7c-0.1,0.4,0,0.8,0.2,1
	c0.2,0.3,0.6,0.5,1,0.5H5v39.5C5,69.5,5.6,70,6.2,70h64.1c0.7,0,1.2-0.5,1.2-1.2V29.2h3.8c0.4,0,0.7-0.2,1-0.5
	C76.5,28.5,76.6,28.1,76.5,27.7L76.5,27.7z M49.7,48.1c-0.7,0-1.2,0.5-1.2,1.2v5h-1.1v-9.1c0-3,2.4-5.4,5.4-5.4c3,0,5.4,2.4,5.4,5.4
	v9.1h-1.1v-5c0-0.7-0.6-1.2-1.2-1.2c-0.7,0-1.2,0.5-1.2,1.2v5h-3.7v-5C50.9,48.7,50.4,48.1,49.7,48.1L49.7,48.1z M52.8,37.4
	c-1.4,0-2.6-0.7-3.2-1.9l-0.8-1.4h8.1L56,35.6C55.3,36.7,54.1,37.4,52.8,37.4L52.8,37.4z M59.4,56.8c0.7,0,1.2-0.6,1.2-1.2V45.3
	c0-2.9-1.6-5.4-3.9-6.8c0.6-0.5,1.1-1,1.4-1.7l1.9-3.2c0.2-0.4,0.2-0.8,0-1.2c-0.2-0.4-0.6-0.6-1.1-0.6H46.6c-0.4,0-0.8,0.2-1.1,0.6
	c-0.2,0.4-0.2,0.8,0,1.2l1.9,3.2c0.4,0.7,0.9,1.2,1.4,1.7c-2.3,1.4-3.9,3.9-3.9,6.8v10.3c0,0.7,0.5,1.2,1.2,1.2h5.4v3.8h-12V29.2H65
	v31.4H54v-3.8H59.4z M21.8,43.5c0.1-0.3,0.2-0.5,0.2-0.8h1.3c0.1,0.3,0.1,0.5,0.2,0.8l0.2,0.7h-2.1L21.8,43.5z M24.7,36.2
	c-0.9,1.2-1.4,2.6-1.6,4.1h-1c-0.1-1.5-0.7-2.9-1.6-4.1l-1.5-2h7.1L24.7,36.2z M20.8,46.7h3.7l2.5,7.9h-8.6L20.8,46.7z M28.6,57
	c0.4,0,0.8-0.2,1-0.5c0.2-0.3,0.3-0.7,0.2-1.1l-4-12.6c-0.6-1.7-0.2-3.7,0.9-5.1l2.9-4c0.3-0.4,0.3-0.9,0.1-1.3
	c-0.2-0.4-0.6-0.7-1.1-0.7h-12c-0.5,0-0.9,0.3-1.1,0.7c-0.2,0.4-0.2,0.9,0.1,1.3l2.9,4c1.1,1.5,1.4,3.4,0.9,5.1l-4,12.6
	c-0.1,0.4-0.1,0.8,0.2,1.1c0.2,0.3,0.6,0.5,1,0.5h4.8v3.7h-9.8V29.2h25.5v31.4H23.8V57H28.6z M52,26.8L50,2.5h4.6l3.3,24.3H52z
	 M49.5,26.8h-6.2L42.7,2.5h4.8L49.5,26.8z M40.9,26.8h-5.2l0.6-24.3h4L40.9,26.8z M33.2,26.8h-6.2l2-24.3h4.8L33.2,26.8z M24.6,26.8
	h-5.9L22,2.5h4.6L24.6,26.8z M16.2,26.8h-5.9L15,2.5h4.5L16.2,26.8z M60.3,26.8L57,2.5h4.5l4.6,24.3H60.3z M8.6,2.5h3.9L7.9,26.8
	H2.8L8.6,2.5z M69.1,67.5H7.5V29.2h1.6v32.7c0,0.7,0.6,1.2,1.2,1.2h55.9c0.7,0,1.2-0.5,1.2-1.2V29.2h1.6V67.5z M68.7,26.8L64.1,2.5
	h3.9l5.9,24.3H68.7z M68.7,26.8"/>
</svg>
