<?xml version="1.0" encoding="utf-8"?>
<!-- Generator: Adobe Illustrator 19.0.0, SVG Export Plug-In . SVG Version: 6.00 Build 0)  -->
<svg version="1.1" id="Capa_1" xmlns="http://www.w3.org/2000/svg" xmlns:xlink="http://www.w3.org/1999/xlink" x="0px" y="0px"
	 viewBox="0 0 70 70" style="enable-background:new 0 0 70 70;" xml:space="preserve">
<g id="XMLID_801_">
	<path id="XMLID_4827_" d="M68.8,29.2V18.7h-9.3v10.5h-7.9l-0.3-2.3h5.9V0H12.8v26.8h5.8l-0.4,2.3H0v11.7h1.2V70H7V45.5
		c0-2.6,2.1-4.7,4.7-4.7h4.8l-0.1,0.3c-0.3,1.4,0.1,2.8,1,3.8c0.9,1.1,2.2,1.7,3.6,1.7h10.5v3.5h2.3v2.3h-2.3v1.4l-14.3,3.3
		c0,0-0.1,0-0.1,0c-0.1,0-0.1,0.1-0.2,0.1c-0.1,0-0.1,0.1-0.2,0.1c-0.1,0-0.1,0.1-0.2,0.2c0,0.1-0.1,0.1-0.1,0.2
		c0,0.1-0.1,0.1-0.1,0.2c0,0.1,0,0.1,0,0.2c0,0,0,0.1,0,0.1v1.2c-2.6,0.3-4.7,2.5-4.7,5.2c0,2.9,2.4,5.3,5.3,5.3
		c2.9,0,5.2-2.4,5.2-5.3c0-2.3-1.5-4.2-3.5-4.9v-0.6l12.8-3v0.4l-2.8,2.8c0,0-0.1,0-0.1,0c-2.9,0-5.3,2.4-5.3,5.2
		c0,2.9,2.4,5.3,5.3,5.3c2.9,0,5.2-2.4,5.2-5.3c0-1.9-1-3.6-2.6-4.5l1.9-1.9h3.7l1.9,1.9c-1.5,0.9-2.6,2.6-2.6,4.5
		c0,2.9,2.4,5.3,5.2,5.3c2.9,0,5.3-2.4,5.3-5.3c0-2.9-2.4-5.2-5.3-5.2c0,0-0.1,0-0.1,0l-2.8-2.8v-0.4l12.8,3v0.6
		c-2,0.7-3.5,2.6-3.5,4.9c0,2.9,2.4,5.3,5.2,5.3c2.9,0,5.3-2.4,5.3-5.3c0-2.7-2.1-4.9-4.7-5.2v-1.2c0,0,0-0.1,0-0.1
		c0-0.1,0-0.2,0-0.2c0-0.1,0-0.1-0.1-0.2c0-0.1-0.1-0.1-0.1-0.2c0-0.1-0.1-0.1-0.2-0.2c-0.1,0-0.1-0.1-0.2-0.1
		c-0.1,0-0.1-0.1-0.2-0.1c0,0-0.1,0-0.1,0l-14.3-3.3v-1.4h-2.3v-2.3h2.3v-3.5h10.3c1.4,0,2.7-0.6,3.6-1.7c0.9-1.1,1.3-2.5,1-3.8
		l-0.1-0.4h5c2.6,0,4.7,2.1,4.7,4.7V70h5.8V40.8H70V29.2H68.8z M19.8,64.7c0,1.6-1.3,2.9-2.9,2.9c-1.6,0-2.9-1.3-2.9-2.9
		c0-1.6,1.3-2.9,2.9-2.9C18.5,61.8,19.8,63.1,19.8,64.7L19.8,64.7z M28.6,67.7c-1.6,0-2.9-1.3-2.9-2.9c0-1.6,1.3-2.9,2.9-2.9
		c1.6,0,2.9,1.3,2.9,2.9C31.5,66.4,30.2,67.7,28.6,67.7L28.6,67.7z M44.3,64.7c0,1.6-1.3,2.9-2.9,2.9c-1.6,0-2.9-1.3-2.9-2.9
		c0-1.6,1.3-2.9,2.9-2.9C43,61.8,44.3,63.1,44.3,64.7L44.3,64.7z M56,64.7c0,1.6-1.3,2.9-2.9,2.9c-1.6,0-2.9-1.3-2.9-2.9
		c0-1.6,1.3-2.9,2.9-2.9C54.7,61.8,56,63.1,56,64.7L56,64.7z M33.8,54.8h2.3V56h-2.3V54.8z M65.3,21h1.2v8.2h-1.2V21z M61.8,21H63
		v8.2h-1.2V21z M54.8,24.5h-3.9L50.4,21h4.5V24.5z M15.2,2.3h39.7v16.3H50l-1.2-7.9c0-0.2-0.1-0.5-0.2-0.7c0-0.1-0.1-0.1-0.1-0.2
		c-0.1-0.2-0.1-0.3-0.2-0.5c0-0.1-0.1-0.1-0.1-0.2C48.1,9,48,8.8,47.8,8.6c0,0,0,0,0,0c-0.2-0.2-0.4-0.4-0.6-0.6
		c-0.1-0.1-0.2-0.1-0.2-0.2c-0.2-0.1-0.4-0.2-0.5-0.3c-0.1-0.1-0.2-0.1-0.3-0.1c-0.2-0.1-0.4-0.1-0.6-0.2c-0.1,0-0.2-0.1-0.3-0.1
		C44.9,7,44.6,7,44.3,7H25.6c-0.3,0-0.6,0-0.9,0.1c-0.1,0-0.2,0.1-0.3,0.1c-0.2,0.1-0.4,0.1-0.6,0.2c-0.1,0-0.2,0.1-0.3,0.1
		c-0.2,0.1-0.3,0.2-0.5,0.3C22.9,7.9,22.8,8,22.7,8c-0.2,0.1-0.3,0.3-0.5,0.5c-0.1,0.1-0.1,0.1-0.2,0.2c-0.2,0.2-0.3,0.4-0.4,0.6
		c0,0,0,0.1-0.1,0.1c-0.1,0.2-0.2,0.4-0.3,0.6c0,0.1,0,0.1-0.1,0.1c-0.1,0.2-0.2,0.5-0.2,0.8l-1.2,7.8h-4.7V2.3z M15.2,21h4.3
		l-0.5,3.5h-3.8V21z M11.7,38.5c-3.9,0-7,3.1-7,7v22.2H3.5V38.5H2.3v-7h15.5l-1.1,7H11.7z M36.2,47.8h-2.3v-1.2h2.3V47.8z M51,41.6
		c0.1,0.7-0.1,1.4-0.5,1.9c-0.4,0.5-1.1,0.8-1.8,0.8H21c-0.7,0-1.3-0.3-1.8-0.8c-0.4-0.5-0.6-1.2-0.5-1.9l0.7-4.6l1.2-7.8l0.4-2.3
		l1.1-7.4l1.2-8.2c0-0.2,0.1-0.4,0.2-0.5c0,0,0-0.1,0.1-0.1c0.1-0.2,0.2-0.3,0.3-0.4c0,0,0,0,0,0c0.1-0.1,0.2-0.2,0.3-0.3
		c0,0,0.1-0.1,0.1-0.1c0.1-0.1,0.2-0.1,0.3-0.2c0.1,0,0.1-0.1,0.1-0.1c0.1,0,0.2-0.1,0.3-0.1c0,0,0.1,0,0.1,0c0.2,0,0.3-0.1,0.5-0.1
		h18.7c0.2,0,0.3,0,0.5,0.1c0,0,0.1,0,0.1,0c0.1,0,0.2,0.1,0.3,0.1c0,0,0.1,0,0.1,0.1c0.1,0.1,0.2,0.1,0.3,0.2c0,0,0.1,0,0.1,0.1
		c0.1,0.1,0.2,0.2,0.4,0.3c0.1,0.1,0.2,0.3,0.3,0.5c0,0,0,0,0,0.1c0.1,0.2,0.1,0.3,0.2,0.5l1.1,7.5l1.2,8.2l0.3,2.3l1.7,11.7
		L51,41.6z M67.7,38.5h-1.2v29.2h-1.2V45.5c0-3.9-3.1-7-7-7H53l-0.3-1.7l-0.8-5.2h15.7V38.5z M67.7,38.5"/>
	<path id="XMLID_3045_" d="M14,33.8H5.8c-0.6,0-1.2,0.5-1.2,1.2c0,0.6,0.5,1.2,1.2,1.2H14c0.6,0,1.2-0.5,1.2-1.2
		C15.2,34.4,14.6,33.8,14,33.8L14,33.8z M14,33.8"/>
	<path id="XMLID_3013_" d="M64.2,33.8H56c-0.6,0-1.2,0.5-1.2,1.2c0,0.6,0.5,1.2,1.2,1.2h8.2c0.6,0,1.2-0.5,1.2-1.2
		C65.3,34.4,64.8,33.8,64.2,33.8L64.2,33.8z M64.2,33.8"/>
</g>
</svg>
