<?xml version="1.0" encoding="utf-8"?>
<!-- Generator: Adobe Illustrator 19.0.0, SVG Export Plug-In . SVG Version: 6.00 Build 0)  -->
<svg version="1.1" id="Capa_1" xmlns="http://www.w3.org/2000/svg" xmlns:xlink="http://www.w3.org/1999/xlink" x="0px" y="0px"
	 viewBox="0 0 25.6 23.5" style="enable-background:new 0 0 25.6 23.5;" xml:space="preserve">
<style type="text/css">
	.st0{fill-rule:evenodd;clip-rule:evenodd;}
</style>
<path id="XMLID_96_" class="st0" d="M23.6,10.4H5.8l7-7.1c0.7-0.7,0.7-1.8,0-2.5c-0.7-0.7-1.7-0.7-2.4,0l-9.6,9.5
	c-0.4,0.4-0.5,0.9-0.4,1.5c-0.1,0.5,0,1.1,0.4,1.5l9.6,9.5c0.7,0.7,1.7,0.7,2.4,0c0.7-0.7,0.7-1.7,0-2.4l-7-7h17.9
	c0.9,0,1.7-0.6,1.7-1.5C25.3,10.9,24.6,10.4,23.6,10.4z"/>
</svg>
