<?xml version="1.0" encoding="utf-8"?>
<!-- Generator: Adobe Illustrator 19.0.0, SVG Export Plug-In . SVG Version: 6.00 Build 0)  -->
<svg version="1.1" id="Capa_1" xmlns="http://www.w3.org/2000/svg" xmlns:xlink="http://www.w3.org/1999/xlink" x="0px" y="0px"
	 viewBox="0 0 74.9 60" style="enable-background:new 0 0 74.9 60;" xml:space="preserve">
<g id="XMLID_9440_">
	<path id="XMLID_9455_" d="M48.9,47.6L48.9,47.6c-0.9,0-1.5,0.7-1.5,1.5c0,0.8,0.7,1.5,1.5,1.5h0.1c0.8,0,1.5-0.7,1.5-1.5
		C50.4,48.2,49.7,47.6,48.9,47.6z"/>
	<path id="XMLID_9441_" d="M73.5,41c0.8,0,1.5-0.7,1.5-1.5V30c0-0.8-0.7-1.5-1.5-1.5h-2.3v-8c0-0.8-0.7-1.5-1.5-1.5H55v-8
		c0-0.8-0.7-1.5-1.5-1.5H38.9v-8c0-0.8-0.7-1.5-1.5-1.5H5.3C4.5,0,3.8,0.7,3.8,1.5v8H1.5C0.7,9.5,0,10.2,0,11v9.5
		C0,21.3,0.7,22,1.5,22h2.3v6.6H1.5C0.7,28.5,0,29.2,0,30v9.5C0,40.3,0.7,41,1.5,41h2.3v6.6H1.5C0.7,47.6,0,48.2,0,49v9.5
		C0,59.3,0.7,60,1.5,60h19.9h32.2h19.9c0.8,0,1.5-0.7,1.5-1.5V49c0-0.8-0.7-1.5-1.5-1.5h-2.3V41H73.5z M72,38h-2.3H55v-6.6h14.6H72
		V38L72,38z M37.5,38H22.8v-6.6h14.6h14.6V38H37.5z M68.2,28.5H53.6H38.9V22h14.6h14.6V28.5z M52.1,19H37.5H22.8v-6.6h14.6h14.6V19z
		 M6.7,2.9H36v6.6H21.4H6.7V2.9z M2.9,12.4h2.3h14.6V19H5.3H2.9V12.4z M6.7,22h14.6H36v6.6H21.4H6.7V22z M2.9,31.5h2.3h14.6V38H5.3
		H2.9V31.5z M6.7,41h14.6H36v6.6H21.4H6.7V41z M2.9,50.5h2.3h14.6v6.6h-17V50.5z M72,57.1H55v-6.6h17V57.1z M68.2,47.6H53.6
		c-0.8,0-1.5,0.7-1.5,1.5v8H22.8v-6.6h14.6h7.4c0.8,0,1.5-0.7,1.5-1.5c0-0.8-0.7-1.5-1.5-1.5h-5.9V41h14.6h14.6V47.6z"/>
</g>
</svg>
