<?xml version="1.0" encoding="utf-8"?>
<!-- Generator: Adobe Illustrator 19.0.0, SVG Export Plug-In . SVG Version: 6.00 Build 0)  -->
<svg version="1.1" id="Capa_1" xmlns="http://www.w3.org/2000/svg" xmlns:xlink="http://www.w3.org/1999/xlink" x="0px" y="0px"
	 viewBox="0 0 50 57" style="enable-background:new 0 0 50 57;" xml:space="preserve">
<g id="XMLID_5310_">
	<path id="XMLID_5353_" d="M44.5,27.5"/>
	<g id="XMLID_5313_">
		<path id="XMLID_5347_" d="M10.8,14.5c0.2,0.1,0.3,0.1,0.5,0.1c0.4,0,0.8-0.2,1-0.6l0,0c0.3-0.5,0.1-1.2-0.5-1.5
			c-0.5-0.3-1.2-0.1-1.5,0.5l0,0C10.1,13.5,10.3,14.2,10.8,14.5L10.8,14.5z M10.8,14.5"/>
		<path id="XMLID_5334_" d="M48.6,22.9V20c0-1.8-1.4-3.3-3.2-3.4c-0.5-3.6-2.2-7.1-4.9-9.9c-2.8-2.9-6.2-4.7-9.8-5.1V1.1
			c0-0.6-0.5-1.1-1.1-1.1h-9.1c-0.6,0-1.1,0.5-1.1,1.1v0.6C15.7,2,12.2,3.8,9.4,6.7c-2.6,2.8-4.4,6.3-4.9,9.9
			c-1.8,0.1-3.2,1.6-3.2,3.4v3C0.3,24,0,24.9,0,25.7c0,2,2,3.6,4.5,4c0.3,2.9,0.8,5.8,1.2,8c0.2,0.8,0.3,1.5,0.4,2
			c0.8,4.8,1.5,7.3,2.6,9.1c1.1,1.9,2.6,2.8,4.6,4.1c0.6,0.4,1.3,0.8,2.1,1.3l0.1,0c3.1,1.8,6.3,2.7,9.5,2.7h0
			c3.2,0,6.4-0.9,9.5-2.7l0.1,0c0.8-0.5,1.5-1,2.1-1.3c2-1.3,3.5-2.2,4.6-4.1c1.1-1.8,1.8-4.3,2.6-9.1c0.1-0.5,0.2-1.2,0.4-2
			c0.4-2.2,1-5.1,1.2-8c1-0.1,1.9-0.5,2.7-1c1.2-0.8,1.9-1.9,1.9-3C50,24.9,49.7,23.9,48.6,22.9z M30.6,3.9
			c7,0.8,12.2,7.7,12.6,13.9c0,0.6,0.5,1,1.1,1h0.8c0.6,0,1.2,0.5,1.2,1.2v1.5c-0.6-0.3-1.3-0.5-2.1-0.8c-3.3-1-7.8-1.7-13.6-1.9
			V3.9z M21.5,2.2h6.9v16.5c-1.1,0-2.2,0-3.3,0c-1.2,0-2.4,0-3.6,0V2.2z M3.6,20c0-0.6,0.5-1.2,1.2-1.2h0.8c0.6,0,1.1-0.5,1.1-1
			c0.4-6.1,5.6-13,12.6-13.9v2.2c-2.5,0.4-5,1.7-6.9,3.9c-0.4,0.5-0.4,1.2,0.1,1.6c0.2,0.2,0.5,0.3,0.7,0.3c0.3,0,0.6-0.1,0.8-0.4
			c1.5-1.7,3.4-2.8,5.3-3.2v10.4c-5.7,0.3-10.2,0.9-13.5,1.9c-0.9,0.3-1.6,0.6-2.2,0.9V20z M42,37.2c-0.2,0.8-0.3,1.5-0.4,2.1
			c-1.4,8.7-2.4,9.3-6.2,11.7c-0.6,0.4-1.3,0.8-2.1,1.4c-5.5,3.2-11.1,3.2-16.7,0c-0.8-0.5-1.5-1-2.1-1.4c-3.8-2.4-4.8-3-6.2-11.7
			C8.2,38.7,8.1,38,8,37.2c-0.4-2.2-1-5.1-1.2-7.8c5.9-2.1,12-3.2,18.2-3.2c6.2,0,12.4,1.1,18.2,3.2C42.9,32.2,42.4,35.1,42,37.2z
			 M44.5,27.5C38.2,25.2,31.7,24,25,24c-6.7,0-13.3,1.2-19.6,3.5c-1.8-0.1-3.2-1-3.2-1.8c0-0.3,0.3-0.8,0.9-1.3c0,0,0,0,0,0
			c1.8-1.3,6.5-3,17.2-3.4c0,0,0,0,0,0c0,0,0,0,0,0c1.4-0.1,3-0.1,4.7-0.1c13.7,0,19.5,1.8,21.6,3.3c0.1,0.1,0.1,0.1,0.2,0.1
			c0.6,0.5,0.9,0.9,0.9,1.3C47.8,26.5,46.3,27.5,44.5,27.5z"/>
		<path id="XMLID_5327_" d="M32.9,37.8c0.9,0,1.7-0.7,1.7-1.7c0-0.9-0.7-1.7-1.7-1.7c-0.9,0-1.7,0.8-1.7,1.7
			C31.3,37.1,32,37.8,32.9,37.8L32.9,37.8z M32.9,37.8"/>
		<path id="XMLID_5322_" d="M17,37.8c0.9,0,1.7-0.7,1.7-1.7c0-0.9-0.7-1.7-1.7-1.7c-0.9,0-1.7,0.8-1.7,1.7
			C15.3,37.1,16.1,37.8,17,37.8L17,37.8z M17,37.8"/>
		<path id="XMLID_5317_" d="M37.9,44c-0.3-0.3-0.8-0.4-1.3-0.2c-0.4,0.2-0.8,0.3-1.2,0.3c-1.2,0-2.5-0.8-3.8-1.5
			C30.4,41.8,29,41,27.5,41c-1,0-1.8,0.4-2.6,1.1c-0.7-0.7-1.6-1.1-2.6-1.1c-1.4,0-2.8,0.8-4.2,1.6c-1.3,0.7-2.6,1.5-3.8,1.5
			c-0.4,0-0.8-0.1-1.2-0.3c-0.4-0.2-0.9-0.1-1.3,0.2c-0.3,0.3-0.4,0.8-0.2,1.3c0.1,0.2,2.2,4.6,7.3,4.6h0c0.3,0,0.6,0,0.9,0
			c2.7-0.3,4.2-1.2,5-2.1c0.8,0.9,2.3,1.8,5,2.1c0.3,0,0.6,0,0.9,0c5.1,0,7.2-4.4,7.3-4.6C38.4,44.8,38.3,44.3,37.9,44z M23.7,45.6
			c-0.5,1-1.9,1.7-4,1.9c-0.2,0-0.4,0-0.7,0h0c-1.7,0-2.9-0.7-3.7-1.4c1.4-0.2,2.8-1,4-1.7c1.1-0.7,2.2-1.3,3.1-1.3
			c0.3,0,0.6,0.1,1.1,0.5C23.9,44.3,24,45,23.7,45.6z M30.9,47.6c-0.2,0-0.4,0-0.7,0c-2-0.2-3.5-0.9-4-1.9C26,45,26,44.3,26.4,43.7
			c0.4-0.5,0.8-0.5,1.1-0.5c0.8,0,1.9,0.6,3.1,1.3c1.2,0.7,2.6,1.5,4,1.7C33.7,46.9,32.5,47.6,30.9,47.6z"/>
	</g>
	<path id="XMLID_5312_" d="M26.4,43.7"/>
</g>
</svg>
