<?xml version="1.0" encoding="utf-8"?>
<!-- Generator: Adobe Illustrator 19.0.0, SVG Export Plug-In . SVG Version: 6.00 Build 0)  -->
<svg version="1.1" id="Capa_1" xmlns="http://www.w3.org/2000/svg" xmlns:xlink="http://www.w3.org/1999/xlink" x="0px" y="0px"
	 viewBox="0 0 74.9 72.9" style="enable-background:new 0 0 74.9 72.9;" xml:space="preserve">
<g id="XMLID_9456_">
	<path id="XMLID_9504_" d="M25.5,18.3l10.2-2.2c0.5-0.1,0.9-0.6,0.7-1.2l-1.3-6c-0.1-0.3-0.2-0.5-0.4-0.6c-0.2-0.1-0.5-0.2-0.7-0.1
		l-10.2,2.2c-0.3,0.1-0.5,0.2-0.6,0.4C23,11,23,11.2,23,11.5l1.3,6c0.1,0.5,0.5,0.8,0.9,0.8C25.4,18.3,25.4,18.3,25.5,18.3
		L25.5,18.3z M33.5,10.2l0.9,4.1L26,16.2L25.1,12L33.5,10.2z M33.5,10.2"/>
	<path id="XMLID_9500_" d="M27.6,27.9l10.2-2.2c0.5-0.1,0.9-0.6,0.7-1.2l-1.3-6c-0.1-0.3-0.2-0.5-0.4-0.6c-0.2-0.1-0.5-0.2-0.7-0.1
		l-10.2,2.2c-0.5,0.1-0.9,0.6-0.7,1.2l1.3,6c0.1,0.3,0.2,0.5,0.4,0.6c0.2,0.1,0.3,0.2,0.5,0.2C27.4,27.9,27.5,27.9,27.6,27.9
		L27.6,27.9z M35.5,19.9l0.9,4.1l-8.3,1.8l-0.9-4.1L35.5,19.9z M35.5,19.9"/>
	<path id="XMLID_9496_" d="M13.9,18.5l-8.5,6.1C5.2,24.7,5,25,5,25.2c0,0.3,0,0.5,0.2,0.7l3.6,5c0.2,0.3,0.5,0.4,0.8,0.4
		c0.2,0,0.4-0.1,0.6-0.2l8.5-6.1c0.4-0.3,0.5-0.9,0.2-1.4l-3.6-5C14.9,18.3,14.3,18.2,13.9,18.5L13.9,18.5z M16.7,24.1l-6.9,5
		l-2.5-3.5l6.9-5L16.7,24.1z M16.7,24.1"/>
	<path id="XMLID_9492_" d="M10.9,34l3.6,5c0.2,0.2,0.4,0.4,0.6,0.4c0.1,0,0.1,0,0.2,0c0.2,0,0.4-0.1,0.6-0.2l8.5-6.1
		c0.4-0.3,0.5-0.9,0.2-1.4l-3.6-5c-0.1-0.2-0.4-0.4-0.6-0.4c-0.3,0-0.5,0-0.7,0.2l-8.5,6.1C10.7,32.9,10.6,33.5,10.9,34L10.9,34z
		 M19.9,28.7l2.5,3.5l-6.9,5L13,33.6L19.9,28.7z M19.9,28.7"/>
	<path id="XMLID_9488_" d="M16.4,41.3c0,0.3,0,0.5,0.2,0.7l3.6,5c0.2,0.3,0.5,0.4,0.8,0.4c0.2,0,0.4-0.1,0.6-0.2l8.5-6.1
		c0.2-0.2,0.4-0.4,0.4-0.6c0-0.3,0-0.5-0.2-0.7l-3.6-5c-0.3-0.4-0.9-0.5-1.4-0.2l-8.5,6.1C16.6,40.8,16.5,41,16.4,41.3L16.4,41.3z
		 M25.7,36.7l2.5,3.5l-6.9,5l-2.5-3.5L25.7,36.7z M25.7,36.7"/>
	<path id="XMLID_9484_" d="M22.1,49.3c0,0.3,0,0.5,0.2,0.7l3.6,5c0.2,0.3,0.5,0.4,0.8,0.4c0.2,0,0.4-0.1,0.6-0.2l8.5-6.1
		c0.2-0.1,0.4-0.4,0.4-0.6c0-0.3,0-0.5-0.2-0.7l-3.6-5c-0.3-0.4-0.9-0.5-1.4-0.2l-8.5,6.1C22.3,48.8,22.2,49,22.1,49.3L22.1,49.3z
		 M31.4,44.7l2.5,3.5l-6.9,5l-2.5-3.5L31.4,44.7z M31.4,44.7"/>
	<path id="XMLID_9480_" d="M28,58l3.6,5c0.1,0.2,0.4,0.4,0.6,0.4c0.1,0,0.1,0,0.2,0c0.2,0,0.4-0.1,0.6-0.2l8.5-6.1
		c0.4-0.3,0.5-0.9,0.2-1.4l-3.6-5c-0.1-0.2-0.4-0.4-0.6-0.4c-0.3,0-0.5,0-0.7,0.2l-8.5,6.1C27.8,57,27.7,57.6,28,58L28,58z
		 M37.1,52.7l2.5,3.5l-6.9,5l-2.5-3.5L37.1,52.7z M37.1,52.7"/>
	<path id="XMLID_9476_" d="M46.4,12.4l10.2,2.4c0.1,0,0.1,0,0.2,0c0.2,0,0.4,0,0.5-0.1c0.2-0.1,0.4-0.4,0.4-0.6l1.4-6
		c0.1-0.5-0.2-1-0.7-1.2L48.3,4.5c-0.5-0.1-1,0.2-1.2,0.7l-1.4,6c-0.1,0.3,0,0.5,0.1,0.7C46,12.2,46.2,12.3,46.4,12.4L46.4,12.4z
		 M48.8,6.6l8.3,2l-1,4.1l-8.3-2L48.8,6.6z M48.8,6.6"/>
	<path id="XMLID_9472_" d="M44.2,22l10.2,2.4c0.1,0,0.1,0,0.2,0c0.2,0,0.4,0,0.5-0.1c0.2-0.1,0.4-0.4,0.4-0.6l1.4-6
		c0.1-0.5-0.2-1-0.7-1.2L46,14.1c-0.5-0.1-1,0.2-1.2,0.7l-1.4,6c-0.1,0.3,0,0.5,0.1,0.7C43.7,21.8,43.9,21.9,44.2,22L44.2,22z
		 M46.5,16.2l8.3,2l-1,4.1l-8.3-2L46.5,16.2z M46.5,16.2"/>
	<path id="XMLID_9457_" d="M74.4,8.1L58.8,0.7c-0.2-0.1-0.5-0.1-0.7,0c-0.2,0.1-0.4,0.3-0.5,0.5l-0.2,0.4l-4.3-1.6
		c-0.5-0.2-1.1,0.1-1.2,0.6l-0.2,0.7L45.9,0c-0.5-0.1-1,0.2-1.2,0.7L40.6,18L37.7,4.5c-0.1-0.5-0.6-0.9-1.2-0.7L19.7,7.3
		c-0.3,0.1-0.5,0.2-0.6,0.4c-0.1,0.2-0.2,0.5-0.1,0.7l2.9,13.7l-6-8.5c-0.1-0.2-0.4-0.4-0.6-0.4c-0.3,0-0.5,0-0.7,0.2l-14.1,10
		c-0.4,0.3-0.5,0.9-0.2,1.4l34,47.6c0.2,0.2,0.4,0.4,0.6,0.4c0.1,0,0.1,0,0.2,0c0.2,0,0.4-0.1,0.6-0.2l14.1-10
		c0.1-0.1,0.2-0.2,0.3-0.4l0,0L74.8,9.4C75.1,8.9,74.9,8.3,74.4,8.1L74.4,8.1z M44.4,35.9l5.9,1.4l-1,4.1l-3.9-0.9L44.4,35.9z
		 M47.4,49.7l-0.7-3.1l1.3,0.3L47.4,49.7z M62.4,9.5l0.8,0.3l-1.4,4l-0.3-0.1L62.4,9.5z M56.8,33.1l1.8-5c0.2-0.4,0-0.9-0.4-1.1
		l0.4-1.7c0.1,0,0.2,0,0.3,0c0.4,0,0.8-0.2,0.9-0.6l2.1-5.8c0.2-0.5-0.1-1.1-0.6-1.2l-0.8-0.3l0.4-1.7l1,0.4c0.1,0,0.2,0.1,0.3,0.1
		c0.4,0,0.8-0.2,0.9-0.6l2.1-5.8c0.1-0.2,0.1-0.5,0-0.7c-0.1-0.2-0.3-0.4-0.5-0.5l-1.9-0.7l0.4-1.8l4.4,1.6L53.9,45.6L56.8,33.1z
		 M46.4,2.1l14.9,3.5L49.1,57.5l-0.9-4.4c0.3-0.1,0.5-0.4,0.6-0.7l1.4-6c0.1-0.5-0.2-1-0.7-1.2l-3.2-0.7l-0.4-1.9l4,0.9
		c0.1,0,0.2,0,0.2,0c0.4,0,0.8-0.3,0.9-0.7l1.4-6c0.1-0.3,0-0.5-0.1-0.7c-0.1-0.2-0.4-0.4-0.6-0.4L44,33.8l-0.4-1.9l8.5,2
		c0.1,0,0.2,0,0.2,0c0.4,0,0.8-0.3,0.9-0.7l1.4-6c0.1-0.3,0-0.5-0.1-0.7c-0.1-0.2-0.4-0.4-0.6-0.4l-10.2-2.4c-0.3-0.1-0.5,0-0.7,0.1
		c-0.2,0.1-0.4,0.4-0.4,0.6l-0.3,1.4l-0.7-3.3L46.4,2.1z M43.3,29.9l1-4.1l8.3,2l-1,4.1L43.3,29.9z M21,9l15-3.2l11.1,51.7l-2.5-3.4
		c0.1-0.2,0.1-0.4,0.1-0.6l-1.3-6c-0.1-0.3-0.2-0.5-0.4-0.6c-0.2-0.1-0.5-0.2-0.7-0.1l-2.6,0.5l-1.1-1.5l3.3-0.7
		c0.3-0.1,0.5-0.2,0.6-0.4c0.1-0.2,0.2-0.5,0.1-0.7l-1.3-6c-0.1-0.3-0.2-0.5-0.4-0.6C40.7,37,40.5,37,40.2,37l-6.7,1.4l-1.1-1.5
		l7.5-1.6c0.3-0.1,0.5-0.2,0.6-0.4c0.1-0.2,0.2-0.5,0.1-0.7l-1.3-6c-0.1-0.5-0.6-0.9-1.2-0.7l-10.2,2.2c-0.2,0-0.4,0.2-0.5,0.3
		l-2.7-3.8L21,9z M42.1,50.5L41,48.9l0.8-0.2L42.1,50.5z M34.7,40.2l5-1.1l0.9,4.1l-3.2,0.7L34.7,40.2z M29.7,33.1l-0.4-1.8l8.3-1.8
		l0.9,4.1l-7.3,1.6L29.7,33.1z M35.2,70.6l-32.9-46l12.5-8.9l32.9,46L35.2,70.6z M56.9,42.9l6-16.6c0.2-0.1,0.4-0.2,0.4-0.5l2.6-5.6
		c0.2-0.5,0-1-0.4-1.3l0.6-1.6l0.1,0.1c0.1,0.1,0.3,0.1,0.4,0.1c0.4,0,0.7-0.2,0.9-0.6l2.6-5.6c0.2-0.5,0-1.1-0.5-1.3l-0.8-0.4
		l0.6-1.7l3.2,1.5L56.9,42.9z M56.9,42.9"/>
</g>
</svg>
