<?xml version="1.0" encoding="utf-8"?>
<!-- Generator: Adobe Illustrator 19.0.0, SVG Export Plug-In . SVG Version: 6.00 Build 0)  -->
<svg version="1.1" id="Capa_1" xmlns="http://www.w3.org/2000/svg" xmlns:xlink="http://www.w3.org/1999/xlink" x="0px" y="0px"
	 viewBox="0 0 36 50" style="enable-background:new 0 0 36 50;" xml:space="preserve">
<style type="text/css">
	.st0{fill:#338D8A;}
</style>
<g id="XMLID_164_">
	<path id="XMLID_296_" class="st0" d="M12.2,42.3c0-0.5-0.3-0.9-0.7-1c-0.2-0.1-4.2-1.2-5.4-8.8l-0.2-1c-0.6-3.9-1.5-9.8-3.5-12.9
		c-0.6-0.9-1.1-2-0.4-2.7c0.9-0.8,2.6-0.8,3.4,0.1c2.2,2.4,4.1,7.5,4.1,9.9c0,0.6,0.4,1,0.9,1c0.5,0,0.9-0.4,0.9-1v-9.6
		c0-0.6-0.4-1-0.9-1c-0.5,0-0.9,0.4-0.9,1v3c-0.8-1.8-1.8-3.6-2.9-4.7c-1.4-1.5-4.2-1.6-5.8-0.2C0.5,14.9-1,16.6,1,19.7
		c1.8,2.8,2.7,8.7,3.2,12.1l0.2,1C5.6,40,9.1,42.3,10.6,43V49c0,0.6,0.4,1,0.9,1c0.5,0,0.9-0.4,0.8-1V42.3z"/>
	<path id="XMLID_256_" class="st0" d="M32,16.3c-0.8,0-1.6,0.3-2.2,0.9v-0.9c0-1.2-0.5-2.6-1.4-3.6c-0.7-0.8-1.6-1.2-2.5-1.2
		c-0.8,0-1.6,0.3-2.2,0.9c-0.1-1.3-0.5-2.5-1.4-3.5c-0.7-0.8-1.6-1.2-2.5-1.2c-0.8,0-1.6,0.3-2.2,0.9V4.8c0-2.3-1.7-4.8-3.9-4.8
		S9.7,2.5,9.7,4.8v3.8c0,0.6,0.4,1,0.9,1s0.9-0.4,0.9-1V4.8c0-1.3,1-2.9,2.2-2.9c1.2,0,2.2,1.5,2.2,2.9v7.6v0.1v9.6
		c0,0.6,0.4,1,0.9,1c0.5,0,0.9-0.4,0.9-1v-9.7c0.1-1.2,1-2.8,2.2-2.8c0.4,0,0.9,0.2,1.3,0.7c0.5,0.6,0.9,1.4,0.9,2.2v10.6
		c0,0.6,0.4,1,0.9,1c0.5,0,0.9-0.4,0.9-1v-6.7c0-1.3,1-2.9,2.2-2.9c0.4,0,0.9,0.2,1.3,0.7c0.5,0.6,0.9,1.4,0.9,2.2v4.5
		c0,0.1,0,0.2,0,0.3v1.9c0,0.6,0.4,1,0.9,1c0.5,0,0.9-0.4,0.9-1V21c0.1-1.2,1.1-2.7,2.2-2.7c1.2,0,2.2,1.5,2.2,2.9v11.5
		c0,5.7,0,5.7-1.2,7.4c-0.4,0.4-0.7,1-1.2,1.6c-0.2,0.2-0.2,0.5-0.2,0.7V49c0,0.6,0.4,1,0.9,1c0.5,0,0.9-0.4,0.9-1v-6.4
		c0.4-0.6,0.7-1,1-1.3C36,39,36,38.8,36,32.6V21.2C36,18.8,34.3,16.3,32,16.3z"/>
	<path id="XMLID_255_" class="st0" d="M10.6,13.5c0.5,0,0.9-0.4,0.9-1s-0.4-1-0.9-1s-0.9,0.4-0.9,1S10.1,13.5,10.6,13.5z"/>
	<path id="XMLID_213_" class="st0" d="M22.8,41.3c0.5,0,0.9-0.4,0.9-1s-0.4-1-0.9-1h-2.6c-0.5,0-0.9,0.4-0.9,1s0.4,1,0.9,1H22.8z"/>
	<path id="XMLID_182_" class="st0" d="M23.7,43.3h-4.4c-0.5,0-0.9,0.4-0.9,1c0,0.6,0.4,1,0.9,1h4.4c0.5,0,0.9-0.4,0.9-1
		C24.6,43.7,24.2,43.3,23.7,43.3z"/>
</g>
</svg>
