<?xml version="1.0" encoding="utf-8"?>
<!-- Generator: Adobe Illustrator 19.0.0, SVG Export Plug-In . SVG Version: 6.00 Build 0)  -->
<svg version="1.1" id="Capa_1" xmlns="http://www.w3.org/2000/svg" xmlns:xlink="http://www.w3.org/1999/xlink" x="0px" y="0px"
	 viewBox="0 0 41.2 50" style="enable-background:new 0 0 41.2 50;" xml:space="preserve">
<style type="text/css">
	.st0{fill:#338D8A;}
</style>
<path id="XMLID_534_" class="st0" d="M36.6,41.4l-7.8-3.3h4.6c2.1,0,3.7-1.6,3.7-3.6v-0.8c0-0.8-0.3-1.6-0.7-2.2
	c1.5-0.6,2.6-2.1,2.6-3.7v-0.5c0-1.3-0.7-2.5-1.9-3.1c0.5-0.6,0.9-1.5,0.9-2.3V21c0-2.1-1.6-3.7-3.6-3.7h-10H19l0.9-1.2
	c1.3-1.7,4.4-7.6,4.8-11.3C24.8,2.7,23,0.4,20.9,0c-0.6-0.1-2.9-0.2-3.8,3.3c-0.8,3.3-4.4,8.3-7.1,10.5c-1.3,1.1-2.4,2.5-3.4,4.4
	H3.6c-2.2,0-3.6,1.4-3.6,3.3v2.2c0,0.5,0.4,0.9,0.9,0.9c0.5,0,0.9-0.4,0.9-0.9v-2.2c0-1.4,1.5-1.5,1.8-1.5h2.3
	c-1.3,3.7-0.5,6.5-0.5,6.6C5.6,27,6,27.2,6.3,27.2c0.1,0,0.2,0,0.2,0c0.5-0.2,0.8-0.7,0.6-1.2c0-0.1-0.8-2.8,0.8-6.3
	c0.1-0.1,0.1-0.1,0.2-0.2c0.9-1.9,1.9-3.3,3.1-4.3C13.8,13.1,18,7.7,19,3.8c0.2-1,0.7-2.1,1.7-1.9c1.1,0.2,2.3,1.6,2.2,2.7
	c-0.3,3.2-3.3,8.8-4.5,10.4l-1.8,2.6c-0.2,0.3-0.3,0.6-0.1,0.9c0.2,0.3,0.5,0.5,0.8,0.5h4.1c-0.2,0.3-0.3,0.6-0.4,0.9c0,0,0,0,0,0
	c0,0,0,0.1,0,0.1c0,0.1-0.1,0.3-0.1,0.4c0,0,0,0.1,0,0.1c0,0,0,0.1,0,0.1c0,0.1,0,0.2,0,0.2v0.8c0,0.1,0,0.1,0,0.2
	c0,0.5,0.1,0.9,0.3,1.3c0,0,0,0,0,0c0,0,0,0.1,0.1,0.1c0,0,0,0,0,0c0.1,0.3,0.3,0.5,0.5,0.7c-1,0.7-1.6,1.7-1.8,3c0,0,0,0.1,0,0.1
	c0,0,0,0.1,0,0.1c0,0.1,0,0.2,0,0.2v0.5c0,0.1,0,0.1,0,0.2c0,0,0,0,0,0c0,0.1,0,0.1,0,0.2c0,0,0,0,0,0c0,0.1,0,0.1,0,0.2l0,0
	c0.1,0.9,0.6,1.6,1.2,2.1c-0.7,0.6-1.2,1.5-1.2,2.6c0,0,0,0,0,0c0,0.1,0,0.1,0,0.2v0.8c0,2,1.6,3.6,3.6,3.6h0.5l11.7,5
	c4.2,2.2,3.8,3,3.3,4.2c-0.5,1-1.2,1.3-3.4,0.5l-15.4-5c-0.1,0-0.2,0-0.3,0h-1.3c-7.4,0-7.3,0-10.9-2.6c-0.2-0.1-0.4-0.2-0.5-0.2
	H3.6c-1,0-1.8-1.2-1.8-2.2v-6.9c0-0.5-0.4-0.9-0.9-0.9C0.4,30,0,30.3,0,30.9v6.9c0,1.9,1.5,4,3.6,4h3.4c3.7,2.8,4.2,2.8,11.7,2.8
	h1.1l15.2,4.9c0.5,0.2,1.5,0.5,2.5,0.5c1.1,0,2.3-0.5,3.1-2C42.2,45,40.5,43.4,36.6,41.4z M37.3,27.8c0,1.1-1,2.2-2.1,2.2h-1.7h-9.7
	c-1.2,0-2-0.7-2-1.8v-0.5c0-1.2,0.9-2.2,2-2.2h0.7h10h0.7c1,0,2.1,0.6,2.1,1.8V27.8z M36.3,21v0.8c0,1-0.8,1.8-1.8,1.8h-10
	c-1,0-1.8-0.8-1.8-1.8V21c0-1.1,0.8-1.9,1.8-1.9h10C35.5,19.1,36.3,19.9,36.3,21z M23.6,36.3c-1,0-1.8-0.8-1.8-1.8v-0.8
	c0-1.1,0.8-1.9,1.8-1.9h0.2h9.7c1,0,1.9,0.9,1.9,1.9v0.8c0,1-0.8,1.8-1.9,1.8h-9.2H23.6z"/>
</svg>
