<?xml version="1.0" encoding="utf-8"?>
<!-- Generator: Adobe Illustrator 19.0.0, SVG Export Plug-In . SVG Version: 6.00 Build 0)  -->
<svg version="1.1" id="Capa_1" xmlns="http://www.w3.org/2000/svg" xmlns:xlink="http://www.w3.org/1999/xlink" x="0px" y="0px"
	 viewBox="0 0 50 38.4" style="enable-background:new 0 0 50 38.4;" xml:space="preserve">
<style type="text/css">
	.st0{fill:#338D8A;}
</style>
<path id="XMLID_131_" class="st0" d="M49.5,19c-1.3-1.7-2.6-2-5.3-0.7V0.8c0-0.5-0.3-0.8-0.8-0.8h-35C7.9,0,7.5,0.3,7.5,0.8
	c0,0.1,0,0.1,0,0.2v16.5c-0.6,0.3-1.2,0.7-1.7,1v-1.7H0v2.5C0,19.7,0.3,20,0.8,20s0.8-0.3,0.8-0.8v-0.8h2.5v1.3v16.3v0.8H1.7V25.9
	c0-0.5-0.3-0.8-0.8-0.8S0,25.4,0,25.9v12.5h5.8v-2.5h10.8c1.7,0,3.4-0.2,5.1-0.3l10.8-1.7c0.4,0,0.8-0.1,1.2-0.2
	c1-0.2,1.9-0.7,2.8-1.4l12.6-10C50.1,21.5,50.3,20,49.5,19z M23.4,15.3c0.7,0.6,1.6,0.9,2.4,0.9c0.8,0,1.8-0.3,2.4-0.9l0.5-0.4
	l9.3,7l-2.4,1.5c-1,0.6-3.2,0.7-5.2,0.8c0-0.1,0-0.2,0-0.3c0.2-0.7,0-1.5-0.6-2.5c-1.3-1.9-3.6-3.1-6-3.1h-3.3c-0.5,0-1.1,0-1.6-0.1
	l3.9-3.3L23.4,15.3z M39.6,20.9L30,13.8L42.5,2.6v16.5L39.6,20.9z M41.2,1.7L27.1,14.1c-0.7,0.7-1.8,0.7-2.6,0l-14-12.4H41.2z
	 M9.2,16.7v-14l12.5,11.1l-4.5,3.8c-0.4-0.2-0.9-0.5-1.3-0.8c-1.8-1.4-4.3-1-6.5-0.1C9.3,16.6,9.2,16.7,9.2,16.7z M48.1,21.2
	L35.4,31l-0.1,0.1c-0.5,0.6-1.2,0.9-1.9,1c-0.3,0.1-0.6,0.1-0.9,0.1l-11,1.7c-1.6,0.3-3.3,0.3-4.8,0.3H5.8V20.4c2-1.4,6.7-4.1,9-2.3
	c1.2,0.9,2.8,1.5,4.4,1.7c0.4,0.1,0.9,0.1,1.3,0.1h3.3c0.1,0,0.2,0,0.3,0c0,0,0.1,0,0.1,0c0,0,0.1,0,0.1,0c1,0.1,1.9,0.4,2.7,0.9
	c0.6,0.4,1.1,0.8,1.4,1.4c0.3,0.5,0.4,0.9,0.4,1.4c-0.4,0.3-1.3,0.4-2.2,0.5c-0.3,0-0.6,0-0.9,0l0,0h-8.1c-2.6,0-4.2,1.3-4.2,3.3
	c0,0.5,0.3,0.8,0.8,0.8c0.5,0,0.8-0.3,0.8-0.8c0-0.4,0-1.7,2.5-1.7h8v0c0.3,0,0.6,0,1.1,0c0.1,0,0.3,0,0.4,0c3.9,0.1,7.6,0,9.5-1
	l7.2-4.4c3.5-1.8,3.8-1.3,4.5-0.3C48.4,20.4,48.4,20.9,48.1,21.2z"/>
</svg>
