<?xml version="1.0" encoding="utf-8"?>
<!-- Generator: Adobe Illustrator 19.0.0, SVG Export Plug-In . SVG Version: 6.00 Build 0)  -->
<svg version="1.1" id="Capa_1" xmlns="http://www.w3.org/2000/svg" xmlns:xlink="http://www.w3.org/1999/xlink" x="0px" y="0px"
	 viewBox="0 0 29.5 50" style="enable-background:new 0 0 29.5 50;" xml:space="preserve">
<style type="text/css">
	.st0{fill:#338D8A;}
</style>
<g id="XMLID_4251_">
	<g id="XMLID_177_">
		<path id="XMLID_179_" class="st0" d="M1,26c-0.5,2.1,0.5,4.2,2.6,4.9c0.8,0.3,1.8,0.3,2.6,0c0,1.6,1.1,3.1,2.7,3.7L9,34.6
			c1,0.4,2.1,0.3,3-0.2c0.2-0.1,0.4-0.2,0.4-0.3c0.4,1.9,2.1,3.3,4,3.3c0.8,0,1.6-0.3,2.2-0.7V46c0,2.2,1.8,4,4,4s4-1.8,4-4v-2.2
			c0-0.5-0.4-0.9-0.9-0.9c-0.5,0-0.9,0.4-0.9,0.9V46c0,1.2-1,2.2-2.2,2.2c-1.2,0-2.2-1-2.1-2.1V33.8c0-0.1,0-0.1,0-0.2V26
			c0-0.1,0-0.2,0-0.3c1.3-1,2.9-2.2,4.4-3.3v14.3c0,0.5,0.4,0.9,0.9,0.9c0.5,0,0.9-0.4,0.9-0.9V21c2.4-1.9,2.7-3.8,2.7-6.6v-0.1
			c0-3.7-2.6-6.6-3.6-7.5V3.6c0-2-1.6-3.6-3.6-3.6L6.2,0c-2,0-3.5,1.5-3.5,3.6v3.3C0.1,10.4,0,11.6,0,17.9C0,21.2,0.9,24.9,1,26z
			 M11.9,23.6L11.9,23.6L11.9,23.6c-0.1,0.2-0.2,0.5-0.2,0.7c-0.2,0.9,0,1.7,0.3,2.5c0.3,0.7,0.8,1.4,1.4,1.9l-1,2.9
			c-0.4,1.2-1.6,1.7-2.8,1.3l-0.2-0.1c-0.4-0.1-0.8-0.4-1-0.7c-0.3-0.5-0.4-1.2-0.2-1.9l0.6-1.8c0-0.1,0-0.2,0-0.2l3-8.8
			c0.5-0.8,1.5-1.2,2.5-0.9l0.2,0.1c0.1,0,0.3,0.1,0.4,0.2C13.5,20.7,12.3,22.4,11.9,23.6z M10.4,18.5L10.4,18.5
			c-0.2,0.3-0.3,0.5-0.4,0.7l-3.2,9.2c0,0,0,0,0,0.1c-0.1,0.1-0.2,0.2-0.3,0.3C6.3,28.8,6.1,28.9,6,29c-0.5,0.3-1.2,0.3-1.7,0.1l0,0
			c-0.5-0.2-1-0.6-1.3-1.2c-0.3-0.5-0.3-1.2-0.1-1.7L6.2,17c0.2-0.5,0.6-1,1.2-1.2s1.2-0.3,1.7-0.1c0.5,0.2,1,0.6,1.2,1.2
			C10.5,17.3,10.5,17.9,10.4,18.5z M18.8,33.7c0,0.5-0.3,1.1-0.6,1.4c-0.4,0.4-1,0.6-1.6,0.6c-1.3,0-2.3-1-2.3-2.2v-0.4l0.3-2.1
			c0-0.1,0-0.2,0-0.3l0.8-2.2c0,0,0,0,0-0.1c0.8-0.1,1.8-0.4,2.9-1.2c0.2-0.1,0.4-0.2,0.6-0.4V33.7z M4.3,7.7
			c0.2-0.2,0.2-0.4,0.2-0.6V3.6c0-1,0.7-1.8,1.7-1.8h16.2c1,0,1.8,0.8,1.8,1.8v3.6c0,0.3,0.1,0.5,0.4,0.7c0,0,3.1,2.7,3.2,6.3v0.1
			c0,2.8-0.2,4-2.2,5.4l-0.1,0.1c-2.9,2.1-6.6,5.1-8.1,6.1c-1.4,1-2.6,1.2-3.3,0.6c-0.5-0.4-0.7-1.4-0.4-2.2
			c0.4-0.9,1.4-2.4,2.7-4.1c2.2-2.8,5.1-5.7,6.3-6.2c0.4-0.2,0.6-0.7,0.4-1.2c-0.1-0.4-0.4-0.5-0.8-0.5c-0.1,0-0.2,0-0.4,0.1
			c-1.3,0.6-3.6,2.7-5.6,5.1c-0.3-0.2-0.6-0.4-1-0.5L15,16.8c-0.4-0.1-0.8-0.2-1.3-0.2c-0.5,0-1.1,0.1-1.6,0.3
			c-0.1-0.3-0.2-0.7-0.3-1c-0.5-1-1.3-1.7-2.3-2.1c-0.4-0.1-0.9-0.2-1.3-0.2c-0.6,0-1.3,0.2-1.7,0.4c-1,0.5-1.7,1.3-2.1,2.3
			l-2.2,6.3c-0.3-1.5-0.5-3.2-0.5-4.9C1.8,11.6,1.9,10.9,4.3,7.7z"/>
		<path id="XMLID_178_" class="st0" d="M25.9,39.3c-0.5,0-0.9,0.4-0.9,0.9c0,0.5,0.4,0.9,0.9,0.9c0.5,0,0.9-0.4,0.9-0.9
			C26.8,39.6,26.4,39.3,25.9,39.3z"/>
	</g>
</g>
</svg>
