<?xml version="1.0" encoding="utf-8"?>
<!-- Generator: Adobe Illustrator 19.0.0, SVG Export Plug-In . SVG Version: 6.00 Build 0)  -->
<svg version="1.1" id="Capa_1" xmlns="http://www.w3.org/2000/svg" xmlns:xlink="http://www.w3.org/1999/xlink" x="0px" y="0px"
	 viewBox="-272 392.9 50 57" style="enable-background:new -272 392.9 50 57;" xml:space="preserve">
<style type="text/css">
	.st0{fill:#FFFFFF;}
</style>
<g>
	<path class="st0" d="M-248.9,410.4c-2.5,0.8-4.1,3.1-4.1,5.7c0,0.7,0.5,1.2,1.2,1.2c0.7,0,1.2-0.5,1.2-1.2c0-1.5,1-2.9,2.4-3.4
		c0.6-0.2,1-0.9,0.8-1.5C-247.5,410.6-248.2,410.2-248.9,410.4L-248.9,410.4z M-248.9,410.4"/>
	<path class="st0" d="M-244.2,410.8c-0.6-0.3-1.3-0.1-1.7,0.5c-0.3,0.6-0.1,1.3,0.5,1.7c0,0,0,0,0,0c0.2,0.1,0.4,0.1,0.6,0.1
		c0.4,0,0.8-0.2,1.1-0.6C-243.4,411.9-243.6,411.1-244.2,410.8L-244.2,410.8z M-244.2,410.8"/>
	<path class="st0" d="M-263.4,408.1l3.6,2.1c0.2,0.1,0.4,0.2,0.6,0.2c0.4,0,0.8-0.2,1.1-0.6c0.3-0.6,0.1-1.3-0.4-1.7l-3.6-2.1
		c-0.6-0.3-1.3-0.1-1.7,0.4C-264.1,407-263.9,407.7-263.4,408.1L-263.4,408.1z M-263.4,408.1"/>
	<path class="st0" d="M-228.7,425.3l-4.6-2.7c-0.6-0.3-1.3-0.1-1.7,0.4c-0.3,0.6-0.1,1.3,0.4,1.7l4.6,2.7c0.2,0.1,0.4,0.2,0.6,0.2
		c0.4,0,0.8-0.2,1.1-0.6C-227.9,426.4-228.1,425.6-228.7,425.3L-228.7,425.3z M-228.7,425.3"/>
	<path class="st0" d="M-260.9,416.1c0-0.7-0.5-1.2-1.2-1.2h-8.2c-0.7,0-1.2,0.5-1.2,1.2c0,0.7,0.5,1.2,1.2,1.2h8.2
		C-261.5,417.3-260.9,416.8-260.9,416.1L-260.9,416.1z M-260.9,416.1"/>
	<path class="st0" d="M-223.6,414.9L-223.6,414.9c-0.7,0-1.2,0.5-1.2,1.2c0,0.7,0.5,1.2,1.2,1.2h0c0.7,0,1.2-0.5,1.2-1.2
		C-222.4,415.4-222.9,414.9-223.6,414.9L-223.6,414.9z M-223.6,414.9"/>
	<path class="st0" d="M-252.8,426.6c0.6,0.8,0.9,1.5,1,2.6c-0.5,0.1-0.9,0.6-0.9,1.2v4.5c0,1.6,1.3,3,3,3h5.6c1.6,0,3-1.3,3-3v-4.5
		c0-0.6-0.4-1.1-0.9-1.2c0.1-1.1,0.4-1.8,1-2.6l1.6-2c0.4-0.4,0.8-0.9,1.3-1.5c1.3-1.7,2.2-3.7,2.4-5.8h8.7c0.7,0,1.2-0.5,1.2-1.2
		c0-0.7-0.5-1.2-1.2-1.2l0,0h-8.7c-0.6-5.6-5.4-10-11.1-10c-6.2,0-11.2,5-11.2,11.2c0,1.6,0.3,3.1,0.9,4.5l-6,3.5
		c-0.6,0.3-0.8,1.1-0.4,1.7c0.2,0.4,0.6,0.6,1.1,0.6c0.2,0,0.4-0.1,0.6-0.2l6-3.5c0.1,0.1,0.2,0.3,0.3,0.4c0.5,0.6,0.9,1.1,1.3,1.5
		L-252.8,426.6z M-250.3,434.8v-3.3h6.7v3.3c0,0.3-0.3,0.6-0.6,0.6h-5.6C-250.1,435.4-250.3,435.1-250.3,434.8L-250.3,434.8z
		 M-240.2,421.6c-0.5,0.7-1,1.2-1.5,1.8c-1.7,2-2.7,3.1-2.9,5.8h-4.8c-0.2-2.6-1.3-3.8-2.9-5.8c-0.4-0.5-0.9-1.1-1.5-1.8
		c-0.3-0.4-0.5-0.7-0.8-1.1c0,0,0,0,0,0c0,0,0,0,0,0c-0.8-1.3-1.2-2.8-1.2-4.4c0-4.8,3.9-8.7,8.7-8.7c4.8,0,8.7,3.9,8.7,8.7
		C-238.3,418.1-238.9,420-240.2,421.6L-240.2,421.6z M-240.2,421.6"/>
	<path class="st0" d="M-264.8,426.4c-0.3-0.6-1.1-0.8-1.7-0.4l-0.1,0c-0.6,0.3-0.8,1.1-0.4,1.7c0.2,0.4,0.6,0.6,1.1,0.6
		c0.2,0,0.4-0.1,0.6-0.2l0.1,0C-264.7,427.7-264.5,427-264.8,426.4L-264.8,426.4z M-264.8,426.4"/>
	<path class="st0" d="M-233.9,409.7c0.2,0,0.4-0.1,0.6-0.2l4.1-2.4c0.6-0.3,0.8-1.1,0.4-1.7c-0.3-0.6-1.1-0.8-1.7-0.4l-4.1,2.4
		c-0.6,0.3-0.8,1.1-0.4,1.7C-234.7,409.5-234.3,409.7-233.9,409.7L-233.9,409.7z M-233.9,409.7"/>
</g>
</svg>
