<?xml version="1.0" encoding="utf-8"?>
<!-- Generator: Adobe Illustrator 19.0.0, SVG Export Plug-In . SVG Version: 6.00 Build 0)  -->
<svg version="1.1" id="Capa_1" xmlns="http://www.w3.org/2000/svg" xmlns:xlink="http://www.w3.org/1999/xlink" x="0px" y="0px"
	 viewBox="0 0 214.4 67.9" style="enable-background:new 0 0 214.4 67.9;" xml:space="preserve">
<style type="text/css">
	.st0{fill-rule:evenodd;clip-rule:evenodd;fill:#333232;}
</style>
<g id="XMLID_747_">
	<g id="XMLID_790_">
		<path id="XMLID_802_" class="st0" d="M55.3,11.4l-4.5,3.3c-2.5-3.1-5.4-5.4-8.9-7c-3.4-1.6-7.2-2.4-11.4-2.4
			c-4.5,0-8.7,1-12.5,3.1c-3.8,2.1-6.8,4.9-8.9,8.4C7,20.4,6,24.3,6,28.7c0,6.6,2.4,12.2,7.1,16.6C16,48,19.4,49.9,23.2,51H10.8
			c-1.3-1-2.5-2.1-3.6-3.4C2.4,42.2,0,35.8,0,28.2c0-8,2.9-14.6,8.7-20.1C14.5,2.7,21.8,0,30.5,0c5.3,0,10,1,14.3,3
			C49.1,5,52.5,7.8,55.3,11.4L55.3,11.4z M38.3,51h12c1.8-1.4,3.5-2.9,4.9-4.7L50.8,43C47.2,47,43.1,49.6,38.3,51z"/>
		<path id="XMLID_798_" class="st0" d="M65.2,2.3h11.2c6.2,0,10.4,0.3,12.7,0.8c3.3,0.8,6,2.4,8.1,4.9c2.1,2.5,3.1,5.6,3.1,9.3
			c0,3-0.7,5.7-2.1,8c-1.4,2.3-3.5,4.1-6.2,5.2c-2.7,1.2-6.3,1.8-11,1.8L95.4,51h-6.9L74.1,32.3h-3.2V51h-5.6V2.3L65.2,2.3z
			 M70.9,7.8v19.1l9.6,0.1c3.7,0,6.5-0.4,8.3-1.1c1.8-0.7,3.2-1.8,4.2-3.4c1-1.6,1.5-3.3,1.5-5.2c0-1.9-0.5-3.6-1.5-5.1
			c-1-1.5-2.4-2.6-4-3.3c-1.7-0.7-4.4-1-8.2-1H70.9z"/>
		<path id="XMLID_795_" class="st0" d="M126.7,2.3L149.4,51h-6.1l-5.3-11h-24.2l-5.3,11h-6.3l23-48.7H126.7L126.7,2.3z M126,14.2
			l-9.6,20.3h19.2L126,14.2z"/>
		<polygon id="XMLID_794_" class="st0" points="153.7,2.3 181.8,2.3 181.8,7.8 159.2,7.8 159.2,25.4 181.8,25.4 181.8,30.9 
			159.2,30.9 159.2,51 153.7,51 		"/>
		<polygon id="XMLID_793_" class="st0" points="183.6,7.7 183.6,2.3 214.4,2.3 214.4,7.7 201.9,7.7 201.9,67.9 196.2,67.9 
			196.2,7.7 		"/>
	</g>
	<path id="XMLID_748_" class="st0" d="M8.6,67.1v-5.8h1.3V66h1.6c1.9,0,3.2-0.1,3.9-0.3c1-0.3,1.8-0.8,2.4-1.5
		c0.6-0.7,0.9-1.7,0.9-2.7l0-0.1H20l0,0.1c0,1.2-0.3,2.2-0.9,3.1c-0.6,0.9-1.3,1.5-2.3,2c-0.9,0.4-2.2,0.6-3.9,0.6H8.6L8.6,67.1z
		 M32.6,61.3h7.7v0.1h-6.4V66h6.4v1.2h-7.7V61.3L32.6,61.3z M55.3,61.3h2.3c0.6,0.4,1,0.8,1.3,1.2c0.4,0.6,0.7,1.2,0.7,1.8
		c0,0.8-0.4,1.6-1.1,2.2c-0.7,0.6-1.7,0.9-2.7,0.9c-0.8,0-1.6-0.2-2.2-0.6c-0.7-0.4-1.3-1-1.9-1.9l1.1-0.6c0.8,1.3,1.7,1.9,2.8,1.9
		c0.5,0,0.9-0.1,1.3-0.3c0.4-0.2,0.7-0.4,0.9-0.7c0.2-0.3,0.3-0.6,0.3-1c0-0.4-0.2-0.8-0.5-1.2C57.2,62.6,56.4,62,55.3,61.3
		L55.3,61.3z M72.2,61.3h1.4v5.8h-1.4V61.3L72.2,61.3z M86.4,61.3h1.4c0,0.9,0.3,1.7,0.8,2.5c0.5,0.8,1.3,1.4,2.3,1.9
		c1,0.5,2,0.7,3.2,0.7c1.4,0,2.6-0.3,3.5-1c1-0.7,1.5-1.6,1.7-2.6H95v-1.1h5.8c0,1.8-0.6,3.2-1.9,4.3c-1.2,1.1-2.9,1.6-4.9,1.6
		c-2.5,0-4.5-0.7-5.9-2.2C87,64.1,86.4,62.8,86.4,61.3L86.4,61.3z M113.6,61.3h1.4v5.8h-1.4V61.3L113.6,61.3z M118,61.3h1.8l3.1,3.1
		v-3.1h1.3v5.8h-0.3L118,61.3L118,61.3z M137.5,61.3h7.7v0.1h-6.4V66h6.4v1.2h-7.7V61.3L137.5,61.3z M157.7,61.3h6.5l0,0
		c-0.6,0.2-1.5,0.4-2.7,0.4l4.9,5.4h-1.7l-4.9-5.4H159v5.4h-1.4V61.3L157.7,61.3z M181.7,61.3h2.3c0.6,0.4,1,0.8,1.3,1.2
		c0.4,0.6,0.7,1.2,0.7,1.8c0,0.8-0.4,1.6-1.1,2.2c-0.7,0.6-1.7,0.9-2.7,0.9c-0.8,0-1.6-0.2-2.2-0.6c-0.7-0.4-1.3-1-1.9-1.9l1.2-0.6
		c0.8,1.3,1.7,1.9,2.8,1.9c0.5,0,0.9-0.1,1.3-0.3c0.4-0.2,0.7-0.4,0.9-0.7c0.2-0.3,0.3-0.6,0.3-1c0-0.4-0.2-0.8-0.5-1.2
		C183.6,62.6,182.8,62,181.7,61.3z M8.6,61.3v-2.7h1.3v2.7H8.6L8.6,61.3z M19.3,58.6c0.4,0.8,0.7,1.7,0.7,2.7h-1.4
		c0-1.1-0.3-2-0.9-2.7H19.3L19.3,58.6z M184,61.3h-2.3l0,0c-1.1-0.7-1.8-1.3-2.1-1.6c-0.3-0.3-0.5-0.7-0.6-1.1h1.5l0,0
		c0.1,0.2,0.3,0.5,0.7,0.8c0.2,0.1,0.8,0.5,1.7,1.2C183.3,60.8,183.7,61,184,61.3L184,61.3z M164.2,61.3h-6.5v-2.7h1.4v2l2.3,0
		c0.9,0,1.6-0.1,2-0.2c0.4-0.1,0.8-0.4,1-0.7c0.2-0.3,0.4-0.7,0.4-1.1h1.4c0,0.6-0.2,1.2-0.5,1.6C165.3,60.7,164.8,61,164.2,61.3
		L164.2,61.3z M145.2,61.3h-7.7v-2.7h1.4v1.7h6.4V61.3L145.2,61.3z M124.2,61.3h-1.3v-2.7h1.3V61.3L124.2,61.3z M119.8,61.3H118
		l-2.8-2.7h1.8L119.8,61.3L119.8,61.3z M115,61.3h-1.4v-2.7h1.4V61.3L115,61.3z M87.8,61.3h-1.4v0c0-1,0.2-1.9,0.7-2.7h1.7
		c-0.1,0.1-0.1,0.2-0.2,0.2C88.1,59.6,87.8,60.4,87.8,61.3L87.8,61.3L87.8,61.3z M73.5,61.3h-1.4v-2.7h1.4V61.3L73.5,61.3z
		 M57.6,61.3h-2.3l0,0c-1.1-0.7-1.8-1.3-2.1-1.6c-0.3-0.3-0.5-0.7-0.6-1.1H54l0,0c0.1,0.2,0.3,0.5,0.7,0.8c0.2,0.1,0.8,0.5,1.8,1.2
		C56.9,60.8,57.2,61,57.6,61.3L57.6,61.3z M40.3,61.3h-7.7v-2.7h1.4v1.7h6.4V61.3z M8.6,58.6v-3.1h2.8c2,0,3.5,0.1,4.4,0.4
		c1.3,0.4,2.3,1.1,3.1,2.1c0.2,0.2,0.3,0.4,0.4,0.7h-1.6l0,0c-0.6-0.8-1.5-1.3-2.6-1.6c-0.8-0.2-2.2-0.3-4.2-0.3h-1v2H8.6L8.6,58.6z
		 M180.5,58.6H179c-0.1-0.2-0.1-0.5-0.1-0.7c0-0.5,0.1-1,0.4-1.4c0.3-0.4,0.7-0.7,1.2-1c0.5-0.2,1.1-0.4,1.7-0.4
		c0.6,0,1.2,0.1,1.8,0.4c0.6,0.3,1.1,0.8,1.8,1.5l-1.1,0.7c-0.5-0.6-0.9-1-1.3-1.2c-0.4-0.2-0.8-0.3-1.2-0.3c-0.5,0-1,0.1-1.3,0.4
		c-0.3,0.3-0.5,0.6-0.5,1.1C180.3,58.1,180.3,58.3,180.5,58.6L180.5,58.6z M166.2,58.6h-1.4l0,0c0-0.4-0.1-0.7-0.4-1.1
		c-0.2-0.3-0.6-0.6-1-0.7c-0.4-0.1-1.1-0.2-2-0.2H159v2h-1.4v-3.1h2.7c1.5,0,2.5,0.1,3.1,0.2c0.8,0.2,1.5,0.5,2,1
		C165.9,57.1,166.2,57.8,166.2,58.6L166.2,58.6L166.2,58.6z M138.9,58.6h-1.4v-3.1h7.8v1.2h-6.4V58.6L138.9,58.6z M124.2,58.6h-1.3
		v-3.1h1.3V58.6L124.2,58.6z M117.1,58.6h-1.8l-0.3-0.3v0.3h-1.4v-3.1h0.3L117.1,58.6L117.1,58.6z M88.8,58.6h-1.7
		c0.1-0.1,0.2-0.3,0.2-0.4c0.6-1,1.5-1.7,2.7-2.2c1.1-0.5,2.4-0.8,3.8-0.8c1.1,0,2.2,0.2,3.2,0.5c1,0.4,2,0.9,3,1.7l-1,0.9
		c-0.8-0.6-1.6-1.1-2.5-1.5c-0.9-0.3-1.8-0.5-2.6-0.5c-1.1,0-2.1,0.2-3,0.7C90,57.4,89.3,57.9,88.8,58.6L88.8,58.6z M73.5,58.6h-1.4
		v-3.1h1.4V58.6L73.5,58.6z M54,58.6h-1.5c-0.1-0.2-0.1-0.5-0.1-0.7c0-0.5,0.1-1,0.4-1.4c0.3-0.4,0.7-0.7,1.2-1
		c0.5-0.2,1.1-0.4,1.7-0.4c0.6,0,1.2,0.1,1.8,0.4c0.6,0.3,1.1,0.8,1.8,1.5l-1.1,0.7c-0.5-0.6-0.9-1-1.3-1.2
		c-0.4-0.2-0.8-0.3-1.2-0.3c-0.5,0-1,0.1-1.3,0.4c-0.3,0.3-0.5,0.6-0.5,1.1C53.8,58.1,53.9,58.3,54,58.6L54,58.6z M33.9,58.6h-1.4
		v-3.1h7.8v1.2h-6.4V58.6z"/>
</g>
</svg>
