<?xml version="1.0" encoding="utf-8"?>
<!-- Generator: Adobe Illustrator 19.0.0, SVG Export Plug-In . SVG Version: 6.00 Build 0)  -->
<svg version="1.1" id="Capa_1" xmlns="http://www.w3.org/2000/svg" xmlns:xlink="http://www.w3.org/1999/xlink" x="0px" y="0px"
	 viewBox="0 0 50 63.2" style="enable-background:new 0 0 50 63.2;" xml:space="preserve">
<g id="XMLID_1856_">
	<path fill="white" id="XMLID_1890_" d="M23.1,5.6c-2.5,0.8-4.2,3.1-4.2,5.8c0,0.7,0.6,1.2,1.2,1.2c0.7,0,1.2-0.6,1.2-1.2c0-1.6,1-2.9,2.5-3.4
		c0.6-0.2,1-0.9,0.8-1.6C24.5,5.7,23.8,5.4,23.1,5.6L23.1,5.6z M23.1,5.6"/>
	<path fill="white" id="XMLID_1887_" d="M27.9,6c-0.6-0.3-1.3-0.1-1.7,0.5c-0.3,0.6-0.1,1.3,0.5,1.7c0,0,0,0,0,0c0.2,0.1,0.4,0.2,0.6,0.2
		c0.4,0,0.9-0.2,1.1-0.6C28.7,7.1,28.4,6.3,27.9,6L27.9,6z M27.9,6"/>
	<path fill="white" id="XMLID_1884_" d="M8.4,3.2L12,5.3c0.2,0.1,0.4,0.2,0.6,0.2c0.4,0,0.8-0.2,1.1-0.6c0.3-0.6,0.1-1.3-0.5-1.7L9.6,1
		C9,0.7,8.3,0.9,7.9,1.5C7.6,2.1,7.8,2.8,8.4,3.2L8.4,3.2z M8.4,3.2"/>
	<path fill="white" id="XMLID_1881_" d="M43.6,20.7L38.9,18c-0.6-0.3-1.3-0.1-1.7,0.5c-0.3,0.6-0.1,1.3,0.5,1.7l4.7,2.7c0.2,0.1,0.4,0.2,0.6,0.2
		c0.4,0,0.8-0.2,1.1-0.6C44.4,21.8,44.2,21,43.6,20.7L43.6,20.7z M43.6,20.7"/>
	<path fill="white" id="XMLID_1878_" d="M10.9,11.4c0-0.7-0.6-1.2-1.2-1.2H1.2c-0.7,0-1.2,0.6-1.2,1.2c0,0.7,0.6,1.2,1.2,1.2h8.4
		C10.3,12.6,10.9,12,10.9,11.4L10.9,11.4z M10.9,11.4"/>
	<path fill="white" id="XMLID_1875_" d="M48.8,10.1L48.8,10.1c-0.7,0-1.3,0.6-1.3,1.2c0,0.7,0.6,1.2,1.2,1.2h0c0.7,0,1.2-0.6,1.2-1.2
		C50,10.7,49.4,10.1,48.8,10.1L48.8,10.1z M48.8,10.1"/>
	<path fill="white" id="XMLID_1865_" d="M45.1,10.1h-8.8C35.7,4.4,30.8,0,25,0c-6.3,0-11.4,5.1-11.4,11.4c0,1.6,0.3,3.1,1,4.6l-6.1,3.5
		c-0.6,0.3-0.8,1.1-0.5,1.7c0.2,0.4,0.6,0.6,1.1,0.6c0.2,0,0.4-0.1,0.6-0.2l6.1-3.5c0.1,0.1,0.2,0.3,0.3,0.4
		c0.5,0.6,0.9,1.1,1.3,1.5c-5.1,2.2-8.9,6.6-10.6,12.4c-1.1,3.6,0,9.5,0.8,13.3c0.1,0.3,0.1,0.6,0.2,0.9c0,0,0,0,0,0
		c0.1,0.3,0.1,0.6,0.2,0.9c1.4,8.4,2.6,9.5,6.5,12c0.5,0.3,1.2,0.7,1.8,1.2l0.1,0c2.8,1.6,5.7,2.5,8.6,2.5h0c2.9,0,5.8-0.8,8.6-2.5
		l0.1,0c0.7-0.5,1.3-0.9,1.8-1.2c4-2.5,5.2-3.6,6.5-12c0.1-0.5,0.2-1.1,0.3-1.8c0.7-3.9,1.9-9.7,0.8-13.3
		c-1.7-5.7-5.5-10.2-10.6-12.4c0.4-0.4,0.8-0.9,1.3-1.5c1.4-1.7,2.2-3.8,2.5-5.9h8.8c0.7,0,1.2-0.6,1.2-1.2
		C46.3,10.7,45.8,10.1,45.1,10.1z M34.2,57.4c-0.6,0.4-1.2,0.7-1.9,1.2c-4.9,2.8-9.8,2.8-14.6,0c-0.7-0.5-1.3-0.9-1.9-1.2
		c-3.3-2.1-4.1-2.6-5.4-9.8h1.8c0.6,2.9,3.1,5,6.1,5c3,0,5.6-2.2,6.1-5h1c0.6,2.9,3.1,5,6.1,5c3,0,5.6-2.2,6.1-5h1.8
		C38.3,54.8,37.5,55.3,34.2,57.4z M14.6,46.3c0-2.1,1.7-3.8,3.8-3.8c2.1,0,3.8,1.7,3.8,3.8c0,2.1-1.7,3.8-3.8,3.8
		C16.3,50.1,14.6,48.4,14.6,46.3z M27.8,46.3c0-2.1,1.7-3.8,3.8-3.8c2.1,0,3.8,1.7,3.8,3.8v0v0c0,2.1-1.7,3.8-3.8,3.8
		C29.5,50.1,27.8,48.4,27.8,46.3z M40,45.1h-2.2c-0.6-2.9-3.1-5-6.1-5c-3,0-5.6,2.2-6.1,5h-1c-0.2-1-0.6-1.9-1.2-2.7
		c4.1-1.9,7.4-3.9,10.1-6.1c1.2,1.5,3.7,4.2,7.2,5.6C40.4,43.1,40.2,44.2,40,45.1z M40.8,33.1c0.5,1.6,0.4,4,0.1,6.4
		c-3.9-1.9-6.3-5.5-6.3-5.6c-0.2-0.3-0.5-0.5-0.9-0.5c-0.4,0-0.7,0.1-1,0.3c-2.8,2.5-6.7,4.9-11.6,7.1c-0.8-0.4-1.8-0.6-2.7-0.6
		c-3,0-5.6,2.2-6.1,5H10c-0.7-3.4-1.7-9-0.8-12c1.6-5.3,5.2-9.3,9.9-11.1c0.6,0.8,0.9,1.5,1,2.6c-0.5,0.1-1,0.6-1,1.2v4.6
		c0,1.7,1.4,3,3,3h5.7c1.7,0,3-1.4,3-3v-4.6c0-0.6-0.4-1.1-1-1.2c0.1-1.1,0.4-1.8,1-2.6C35.6,23.8,39.2,27.8,40.8,33.1z M21.6,30.4
		v-3.3h6.8v3.3c0,0.3-0.3,0.6-0.6,0.6h-5.7C21.9,31,21.6,30.7,21.6,30.4z M31.9,16.9c-0.6,0.7-1.1,1.3-1.5,1.8c-1.7,2-2.8,3.2-3,5.9
		h-4.9c-0.2-2.7-1.3-3.9-3-5.9c-0.4-0.5-0.9-1.1-1.5-1.8c-0.3-0.4-0.6-0.7-0.8-1.1c0,0,0,0,0,0c0,0,0,0,0,0
		c-0.8-1.3-1.2-2.9-1.2-4.4c0-4.9,4-8.9,8.9-8.9c4.9,0,8.9,4,8.9,8.9C33.9,13.4,33.2,15.3,31.9,16.9z"/>
	<path fill="white" id="XMLID_1863_" d="M31.9,16.9"/>
	<path fill="white" id="XMLID_1860_" d="M6.9,21.8c-0.3-0.6-1.1-0.8-1.7-0.5l-0.1,0c-0.6,0.3-0.8,1.1-0.5,1.7c0.2,0.4,0.6,0.6,1.1,0.6
		c0.2,0,0.4-0.1,0.6-0.2l0.1,0C7,23.2,7.2,22.4,6.9,21.8L6.9,21.8z M6.9,21.8"/>
	<path fill="white" id="XMLID_1857_" d="M38.3,4.9c0.2,0,0.4-0.1,0.6-0.2l4.2-2.4c0.6-0.3,0.8-1.1,0.5-1.7c-0.3-0.6-1.1-0.8-1.7-0.5l-4.2,2.4
		c-0.6,0.3-0.8,1.1-0.5,1.7C37.5,4.7,37.9,4.9,38.3,4.9L38.3,4.9z M38.3,4.9"/>
</g>
</svg>
