<?xml version="1.0" encoding="utf-8"?>
<!-- Generator: Adobe Illustrator 19.0.0, SVG Export Plug-In . SVG Version: 6.00 Build 0)  -->
<svg version="1.1" id="Capa_1" xmlns="http://www.w3.org/2000/svg" xmlns:xlink="http://www.w3.org/1999/xlink" x="0px" y="0px"
	 viewBox="0 0 50 50" style="enable-background:new 0 0 50 50;" xml:space="preserve">
<g id="XMLID_4124_">
	<path fill="white" id="XMLID_4162_" d="M49.5,30.7c-1.5-2-3-2-6.7-0.1L35.7,35c-1,0.6-3.3,0.8-5.3,0.8c0.4-0.8,0.3-1.7-0.5-2.8
		c-1.3-1.9-3.6-3.1-6-3.1h-3.3c-1.8,0-3.4-0.5-4.8-1.5c-3-2.3-7.7,0.2-10,1.7v-1.7H0V50h5.8v-2.5h10.8c1.7,0,3.4-0.2,5.1-0.3
		l10.8-1.7c0.4,0,0.8-0.1,1.2-0.2c1-0.2,1.9-0.7,2.8-1.4l12.6-10C50.1,33.2,50.3,31.7,49.5,30.7z M4.2,48.4H1.7V30h2.5v1.3v16.3
		V48.4z M48.1,32.9l-12.7,9.8l-0.1,0.1c-0.5,0.6-1.2,0.9-1.9,1c-0.3,0.1-0.6,0.1-0.9,0.1l-11,1.7c-1.6,0.3-3.3,0.3-4.8,0.3H5.8V32.1
		c2-1.4,6.7-4.1,9-2.3c1.6,1.2,3.6,1.8,5.8,1.8h3.3c1.9,0,3.7,0.8,4.8,2.4c0.3,0.5,0.4,1,0.3,1.2c-0.3,0.4-1.3,0.6-2.3,0.7
		c-0.2,0-0.5,0-0.7,0l0,0h-8.1c-2.6,0-4.2,1.3-4.2,3.3c0,0.5,0.3,0.8,0.8,0.8c0.5,0,0.8-0.3,0.8-0.8c0-0.4,0-1.7,2.5-1.7h7.8
		c0.1,0,0.2,0,0.3,0c0.2,0,0.4,0,0.8,0c0.1,0,0.3,0,0.4,0c3.9,0.1,7.6,0,9.5-1l7.2-4.4c3.5-1.8,3.8-1.3,4.5-0.3
		C48.4,32.1,48.4,32.6,48.1,32.9z"/>
	<path fill="white" id="XMLID_4160_" d="M31.1,23.9c0.2,0.2,0.3,0.3,0.6,0.3s0.4-0.1,0.6-0.3l2.5-2.5c0.3-0.3,0.3-0.8,0-1.2
		c-0.3-0.3-0.8-0.3-1.2,0l-2.5,2.5C30.8,23.1,30.8,23.6,31.1,23.9z"/>
	<path fill="white" id="XMLID_4154_" d="M28.6,20.3c-0.3,0.3-0.3,0.8,0,1.2c0.2,0.2,0.3,0.3,0.6,0.3s0.4-0.1,0.6-0.3l2.5-2.5
		c0.3-0.3,0.3-0.8,0-1.2c-0.3-0.3-0.8-0.3-1.2,0L28.6,20.3z"/>
	<path fill="white" id="XMLID_4125_" d="M17.5,12.4v13.4c0,0.3,0.1,0.4,0.3,0.6l2.6,2.5c0.2,0.2,0.3,0.3,0.6,0.3c0.2,0,0.4-0.1,0.6-0.3l2.4-2.5
		c0.2-0.2,0.3-0.3,0.3-0.6V25c0-0.3-0.1-0.4-0.3-0.6l-1.1-1.1l1.1-1.1c0.2-0.2,0.3-0.3,0.3-0.6l6.1,6.1c0.5,0.4,1.1,0.7,1.7,0.7
		c0.5,0,1-0.2,1.4-0.6l6.9-6.9c0.4-0.4,0.6-1,0.6-1.6c0-0.6-0.3-1.1-0.7-1.5l-7.5-7.5c0.4-0.9,0.6-1.8,0.6-2.9c0-3.7-3-6.7-6.7-6.7
		c-0.7,0-1.4,0.1-2.1,0.3C23.5,0.4,22.2,0,20.8,0c-3.7,0-6.7,3-6.7,6.7C14.2,9.1,15.5,11.3,17.5,12.4z M22.5,21.3l-1.4,1.4
		c-0.3,0.3-0.3,0.8,0,1.2l1.4,1.4v0.2l-1.7,1.7l-1.7-1.7V13.2c0.4,0.1,0.8,0.2,1.3,0.2l0.7,4c0.1,0.9,0.6,1.8,1.3,2.5l0.2,0.2V21.3z
		 M39.2,19.4c0,0.1,0,0.2-0.1,0.3l-6.9,6.9c-0.2,0.2-0.5,0.2-0.8-0.1l-7.9-7.9c-0.4-0.4-0.8-1-0.8-1.6l-0.5-3.1L22,12.4c0,0,0,0,0,0
		c0,0,0-0.1,0-0.1l0-0.1c1.2,1.2,2.9,1.9,4.7,1.9c0.5,0,0.8-0.3,0.8-0.8c0-0.5-0.3-0.8-0.8-0.8c-2,0-3.7-1.2-4.5-2.9
		c0.1-0.1,0.3-0.2,0.5-0.3c0.1,0,0.2,0,0.3,0c0.1,0,0.1,0,0.3,0l2.9,0.4c0,0,0.1,0,0.1,0l3.3,0.5c0.6,0.1,1.2,0.4,1.6,0.8L39,19
		C39.1,19.1,39.2,19.3,39.2,19.4z M26.7,2.5c2.8,0,5,2.3,5,5c0,0.6-0.1,1.2-0.3,1.7c-0.5-0.3-1.1-0.5-1.7-0.6l-2.4-0.3
		c0-0.1,0-0.2,0.1-0.4c0.1-0.3,0.1-0.6,0.1-1c0-0.1,0-0.2,0-0.3c0-0.1,0-0.2,0-0.3c0,0,0-0.1,0-0.1c0-0.1,0-0.2,0-0.2c0,0,0,0,0-0.1
		c-0.1-1.3-0.6-2.5-1.4-3.5C26.3,2.5,26.5,2.5,26.7,2.5z M20.8,1.7c1.1,0,2.1,0.4,3,1c0,0,0.1,0.1,0.1,0.1c0.8,0.6,1.3,1.4,1.6,2.3
		c0,0,0,0,0,0c0,0.1,0,0.1,0.1,0.2c0,0,0,0.1,0,0.1c0,0.1,0,0.1,0,0.2c0,0,0,0.1,0,0.1c0,0.1,0,0.1,0,0.2c0,0,0,0.1,0,0.1
		c0,0.1,0,0.1,0,0.2c0,0,0,0.1,0,0.1c0,0.1,0,0.1,0,0.2c0,0,0,0.1,0,0.1c0,0.1,0,0.2,0,0.3c0,0.1,0,0.2,0,0.2c0,0,0,0,0,0
		c0,0.1,0,0.1,0,0.2c0,0,0,0,0,0c0,0,0,0.1,0,0.1c0,0.3-0.1,0.5-0.1,0.7l-2.3-0.3c-0.6-0.1-1.2,0-1.7,0.3c0-0.2,0-0.3,0-0.5
		c0-0.8,0.2-1.5,0.5-2.2c0.2-0.4,0-0.9-0.4-1.1c-0.4-0.2-0.9,0-1.1,0.4C20.3,5.5,20,6.5,20,7.5c0,0.7,0.1,1.3,0.3,1.9
		c-0.2,0.5-0.3,1.1-0.2,1.6l0.1,0.6c-0.1,0-0.1,0-0.2,0c-0.4-0.1-0.8-0.2-1.2-0.4c0,0-0.1,0-0.1,0c-1.6-0.8-2.8-2.5-2.8-4.5
		C15.8,3.9,18.1,1.7,20.8,1.7z"/>
</g>
</svg>
