<?xml version="1.0" encoding="utf-8"?>
<!-- Generator: Adobe Illustrator 19.0.0, SVG Export Plug-In . SVG Version: 6.00 Build 0)  -->
<svg version="1.1" id="Capa_1" xmlns="http://www.w3.org/2000/svg" xmlns:xlink="http://www.w3.org/1999/xlink" x="0px" y="0px"
	 viewBox="0 0 50 42.2" style="enable-background:new 0 0 50 42.2;" xml:space="preserve">
<g id="XMLID_1938_">
	<path fill="white" id="XMLID_1950_" d="M36.2,10.5H6c-0.5,0-1,0.4-1,1v23.1c0,0.5,0.4,1,1,1h20.5c0.5,0,1-0.4,1-1v0c0-2.1,1.5-3.8,3.4-4.3v4.3
		c0,0.5,0.4,1,1,1h4.4c0.5,0,1-0.4,1-1V11.5C37.2,11,36.8,10.5,36.2,10.5L36.2,10.5z M20.3,12.5h15v2.1h-15V12.5z M6.9,12.5h11.4
		v2.1H6.9V12.5z M35.3,33.6h-2.4v-4.4c0-0.5-0.4-1-1-1c-3.2,0-5.8,2.3-6.3,5.4H6.9v-2h4c0.5,0,1-0.4,1-1c0-0.5-0.4-1-1-1h-4V16.5
		h11.4v6.5c0,0.5,0.4,1,1,1c0.5,0,1-0.4,1-1v-6.5h15V33.6z M35.3,33.6"/>
	<path fill="white" id="XMLID_1947_" d="M13.8,29.7L13.8,29.7c-0.6,0-1,0.4-1,1c0,0.5,0.4,1,1,1h0c0.5,0,1-0.4,1-1C14.7,30.1,14.3,29.7,13.8,29.7
		L13.8,29.7z M13.8,29.7"/>
	<path fill="white" id="XMLID_1942_" d="M50,37.3V4.9c0,0,0,0,0,0C50,2.2,47.8,0,45.1,0c-1.3,0-2.6,0.5-3.5,1.5c-0.7,0.7-1.1,1.5-1.3,2.5H1
		c-0.5,0-1,0.4-1,1v36.3c0,0.5,0.4,1,1,1h44.1h0C47.8,42.2,50,40,50,37.3C50,37.3,50,37.3,50,37.3L50,37.3z M45.1,40.2L45.1,40.2H2
		V5.9h38.3v31.4c0,0,0,0,0,0v0c0,0.5,0.4,1,1,1s1-0.4,1-1c0,0,0-0.1,0-0.1c0,0,0,0,0-0.1c0,0,0,0,0-0.1c0,0,0-0.1,0-0.1
		c0,0,0,0,0-0.1c0,0,0-0.1,0-0.1c0,0,0,0,0,0c0,0,0-0.1,0-0.1c0,0,0,0,0,0c0.3-1.3,1.4-2.2,2.7-2.3c0.1,0,0.1,0,0.2,0
		c0.1,0,0.1,0,0.2,0c1.5,0.1,2.8,1.4,2.8,2.9v0v0C48,38.9,46.7,40.2,45.1,40.2L45.1,40.2z M48,4.9v28.5c0,0-0.1-0.1-0.1-0.1
		c0,0,0,0,0,0c0,0-0.1-0.1-0.1-0.1c0,0,0,0,0,0c0,0-0.1-0.1-0.1-0.1c0,0,0,0-0.1,0c0,0-0.1,0-0.1-0.1c0,0,0,0,0,0
		c-0.1,0-0.2-0.1-0.3-0.1c0,0,0,0,0,0c0,0-0.1,0-0.1,0c0,0-0.1,0-0.1,0c0,0-0.1,0-0.1,0c0,0-0.1,0-0.1,0c0,0-0.1,0-0.1,0
		c0,0-0.1,0-0.1,0c0,0-0.1,0-0.1,0c-0.1,0-0.1,0-0.2,0c0,0,0,0,0,0v-4.1c0-0.5-0.4-1-1-1c-0.5,0-1,0.4-1,1v4.1c0,0,0,0,0,0
		c-0.1,0-0.1,0-0.2,0c0,0-0.1,0-0.1,0c0,0-0.1,0-0.1,0c0,0-0.1,0-0.1,0c0,0-0.1,0-0.1,0c0,0-0.1,0-0.1,0c0,0-0.1,0-0.1,0
		c0,0-0.1,0-0.1,0c0,0,0,0-0.1,0c-0.1,0-0.2,0.1-0.2,0.1c0,0,0,0-0.1,0c0,0-0.1,0-0.1,0.1c0,0,0,0-0.1,0c0,0-0.1,0-0.1,0.1
		c0,0,0,0-0.1,0c0,0-0.1,0.1-0.1,0.1c0,0,0,0,0,0c0,0-0.1,0.1-0.1,0.1V4.9c0,0,0,0,0,0c0-0.8,0.3-1.5,0.8-2C43.6,2.3,44.3,2,45.1,2
		C46.7,2,48,3.3,48,4.9C48,4.9,48,4.9,48,4.9L48,4.9z M48,4.9"/>
	<path fill="white" id="XMLID_1939_" d="M45.1,24.6c-0.5,0-1,0.4-1,1v0c0,0.5,0.4,1,1,1c0.5,0,1-0.4,1-1v0C46.1,25.1,45.7,24.6,45.1,24.6
		L45.1,24.6z M45.1,24.6"/>
</g>
</svg>
