<?xml version="1.0" encoding="utf-8"?>
<!-- Generator: Adobe Illustrator 19.0.0, SVG Export Plug-In . SVG Version: 6.00 Build 0)  -->
<svg version="1.1" id="Capa_1" xmlns="http://www.w3.org/2000/svg" xmlns:xlink="http://www.w3.org/1999/xlink" x="0px" y="0px"
	 viewBox="-272 395.9 50 50" style="enable-background:new -272 395.9 50 50;" xml:space="preserve">
<style type="text/css">
	.st0{fill:#FFFFFF;}
</style>
<g id="XMLID_134_">
	<path id="XMLID_703_" class="st0" d="M-263.8,410.7c0.5,0,0.9-0.4,0.9-0.9s-0.4-0.9-0.9-0.9s-0.9,0.4-0.9,0.9
		C-264.7,410.3-264.3,410.7-263.8,410.7z"/>
	<path id="XMLID_2677_" class="st0" d="M-224.6,408.9h-11.2c-0.5,0-0.9,0.4-0.9,0.9v10.3h-10.5c-0.5,0-0.9,0.4-0.9,0.9v10.2h-10.3
		h-10.9c-0.5,0-0.9,0.4-0.9,0.9v11.2c0,0.5,0.4,0.9,0.9,0.9h10.9h11.2h11.4h11.2c0.5,0,0.9-0.4,0.9-0.9v-11.2v-11.2v-11.2
		C-223.7,409.3-224.1,408.9-224.6,408.9z M-246.3,433h9.6v9.4h-9.6V433z M-234.8,421.8h9.4v9.4h-9.4V421.8z M-234.8,410.7h9.4v9.4
		h-9.4V410.7z M-246.3,421.8h9.6v9.4h-9.6V421.8z M-248.1,442.4h-9.4V433h9.4V442.4z M-268.3,433h9.1v9.4h-9.1V433z M-234.8,442.4
		V433h9.4v9.4H-234.8z"/>
	<path id="XMLID_2602_" class="st0" d="M-269.2,421.8h10.9c0.5,0,0.9-0.4,0.9-0.9v-10.3h10.3c0.5,0,0.9-0.4,0.9-0.9v-11.2
		c0-0.5-0.4-0.9-0.9-0.9h-11.2h-10.9c-0.5,0-0.9,0.4-0.9,0.9v11.2v11.2C-270.2,421.4-269.7,421.8-269.2,421.8z M-248.1,408.9h-9.4
		v-9.4h9.4V408.9z M-268.3,399.5h9.1v9.4h-1.2c-0.5,0-0.9,0.4-0.9,0.9s0.4,0.9,0.9,0.9h1.2v9.4h-9.1v-9.4h1.1c0.5,0,0.9-0.4,0.9-0.9
		s-0.4-0.9-0.9-0.9h-1.1V399.5z"/>
</g>
</svg>
