<?xml version="1.0" encoding="utf-8"?>
<!-- Generator: Adobe Illustrator 19.0.0, SVG Export Plug-In . SVG Version: 6.00 Build 0)  -->
<svg version="1.1" id="Capa_1" xmlns="http://www.w3.org/2000/svg" xmlns:xlink="http://www.w3.org/1999/xlink" x="0px" y="0px"
	 viewBox="0 0 50 50" style="enable-background:new 0 0 50 50;" xml:space="preserve">
<g id="XMLID_80_">
	<path fill="white" id="XMLID_1011_" d="M38.3,22.1c0-1.6-1.3-2.9-2.9-2.9h-5.3c1.3-1.4,2.1-3.1,2.3-4.6c0.1-0.9-0.2-1.8-0.8-2.4
		c-0.5-0.6-1.3-0.9-2.1-0.9c0,0,0,0,0,0c-0.8,0-1.5,0.3-2,0.8c-0.5,0.5-0.8,1.3-0.8,2c0,0.2-0.3,0.7-1,1.4c-0.6,0.6-1.6,1.3-3.1,1.8
		c-0.6,0.2-1.1,0.5-1.6,1c-0.2,0.3-0.6,0.6-1.1,1c-0.2-0.1-0.5-0.2-0.8-0.2h-5c-0.9,0-1.6,0.7-1.6,1.6v13.4c0,0.9,0.7,1.6,1.6,1.6h5
		c0.6,0,1.1-0.3,1.4-0.8h12.8c1.4,0,2.5-1.1,2.5-2.5c0-0.5-0.1-0.9-0.3-1.2c0.7-0.4,1.2-1.2,1.2-2.1c0-0.5-0.1-0.9-0.3-1.2
		c0.7-0.4,1.2-1.2,1.2-2.1c0-0.5-0.2-1-0.4-1.4C37.8,23.9,38.3,23.1,38.3,22.1z M35.4,23.4H35c-0.4,0-0.8,0.4-0.8,0.8
		s0.4,0.8,0.8,0.8c0.5,0,0.9,0.4,0.9,0.9c0,0.5-0.4,0.9-0.9,0.9h-0.8c-0.4,0-0.8,0.4-0.8,0.8s0.4,0.8,0.8,0.8c0.5,0,0.9,0.4,0.9,0.9
		c0,0.5-0.4,0.9-0.9,0.9h-0.8c-0.4,0-0.8,0.4-0.8,0.8c0,0.4,0.4,0.8,0.8,0.8c0.5,0,0.9,0.4,0.9,0.9s-0.4,0.9-0.9,0.9H20.8v-7.6
		c0-0.4-0.4-0.8-0.8-0.8c-0.4,0-0.8,0.4-0.8,0.8v8.4c0,0,0,0.1-0.1,0.1h-5c0,0-0.1,0-0.1-0.1V20.8c0,0,0-0.1,0.1-0.1h5
		c0,0,0.1,0,0.1,0.1v1.7c0,0.4,0.4,0.8,0.8,0.8c0.4,0,0.8-0.4,0.8-0.8v-1.7c0,0,0-0.1,0-0.1c0.6-0.5,1.1-0.9,1.4-1.2
		c0.3-0.3,0.6-0.5,0.9-0.6c1.8-0.6,3.1-1.6,3.8-2.3c0.9-0.9,1.4-1.8,1.4-2.5c0-0.3,0.1-0.7,0.4-0.9c0.2-0.2,0.6-0.4,0.9-0.4
		c0.4,0,0.7,0.2,0.9,0.4c0.3,0.3,0.4,0.8,0.4,1.2c-0.2,1.6-1.4,3.5-3.2,4.9c-0.3,0.2-0.4,0.6-0.2,0.9s0.4,0.5,0.7,0.5h7.2
		c0.7,0,1.3,0.6,1.3,1.3C36.7,22.8,36.2,23.4,35.4,23.4z"/>
	<path fill="white" id="XMLID_85_" d="M16.6,30.9c-0.4,0-0.8,0.4-0.8,0.8c0,0.4,0.4,0.8,0.8,0.8s0.8-0.4,0.8-0.8C17.4,31.2,17.1,30.9,16.6,30.9z"
		/>
	<path fill="white" id="XMLID_1004_" d="M48.6,25l1.3-3.6c0.1-0.3,0.1-0.6-0.1-0.8l-2.4-3l0.2-3.8c0-0.3-0.1-0.5-0.4-0.7l-3.2-2.1l-1-3.7
		C43,7.2,42.8,7,42.5,6.9l-3.7-1l-2.1-3.2c-0.2-0.2-0.4-0.4-0.7-0.4l-3.8,0.2l-3-2.4C29.1,0,28.8,0,28.6,0.1L25,1.4l-3.6-1.3
		C21.2,0,20.9,0,20.7,0.2l-3,2.4l-3.8-0.2c-0.3,0-0.5,0.1-0.7,0.4l-2.1,3.2l-3.7,1C7.2,7,7,7.2,6.9,7.5l-1,3.7l-3.2,2.1
		c-0.2,0.2-0.4,0.4-0.4,0.7l0.2,3.8l-2.4,3C0,20.9,0,21.2,0.1,21.4L1.4,25l-1.3,3.6C0,28.8,0,29.1,0.2,29.3l2.4,3l-0.2,3.8
		c0,0.3,0.1,0.5,0.4,0.7l3.2,2.1l1,3.7C7,42.8,7.2,43,7.5,43.1l3.7,1l2.1,3.2c0.2,0.2,0.4,0.4,0.7,0.4l3.8-0.2l3,2.4
		c0.2,0.2,0.5,0.2,0.8,0.1l3.6-1.3l3.6,1.3c0.1,0,0.2,0.1,0.3,0.1c0.2,0,0.3-0.1,0.5-0.2l3-2.4l3.8,0.2c0.3,0,0.5-0.1,0.7-0.4
		l2.1-3.2l3.7-1c0.3-0.1,0.5-0.3,0.5-0.5l1-3.7l3.2-2.1c0.2-0.2,0.4-0.4,0.4-0.7l-0.2-3.8l2.4-3c0.2-0.2,0.2-0.5,0.1-0.8L48.6,25z
		 M47,25.3l1.3,3.4L46,31.5c-0.1,0.1-0.2,0.3-0.2,0.5l0.2,3.6l-3.1,2c-0.2,0.1-0.3,0.3-0.3,0.4l-1,3.5l-3.5,1
		c-0.2,0.1-0.3,0.2-0.4,0.3l-2,3.1l-3.6-0.2c-0.2,0-0.4,0.1-0.5,0.2l-2.9,2.3L25.3,47C25.2,47,25.1,47,25,47c-0.1,0-0.2,0-0.3,0.1
		l-3.4,1.3L18.5,46c-0.1-0.1-0.3-0.2-0.5-0.2L14.3,46l-2-3.1c-0.1-0.2-0.3-0.3-0.4-0.3l-3.5-1l-1-3.5C7.3,38,7.2,37.8,7,37.7l-3.1-2
		l0.2-3.6c0-0.2-0.1-0.4-0.2-0.5l-2.3-2.9L3,25.3C3,25.1,3,24.9,3,24.7l-1.3-3.4L4,18.5c0.1-0.1,0.2-0.3,0.2-0.5L4,14.3l3.1-2
		c0.2-0.1,0.3-0.3,0.3-0.4l1-3.5l3.5-1C12,7.3,12.2,7.2,12.3,7l2-3.1l3.6,0.2c0.2,0,0.4-0.1,0.5-0.2l2.9-2.3L24.7,3
		C24.9,3,25.1,3,25.3,3l3.4-1.3L31.5,4c0.1,0.1,0.3,0.2,0.5,0.2L35.7,4l2,3.1c0.1,0.2,0.3,0.3,0.4,0.3l3.5,1l1,3.5
		c0.1,0.2,0.2,0.3,0.3,0.4l3.1,2l-0.2,3.6c0,0.2,0.1,0.4,0.2,0.5l2.3,2.9L47,24.7C47,24.9,47,25.1,47,25.3z"/>
	<path fill="white" id="XMLID_82_" d="M38,12c0.2,0.2,0.4,0.4,0.6,0.6c0.2,0.2,0.4,0.3,0.6,0.3c0.2,0,0.4-0.1,0.5-0.2c0.3-0.3,0.3-0.8,0-1.1
		c-0.2-0.2-0.4-0.4-0.6-0.6c-0.2-0.2-0.4-0.4-0.6-0.6c-0.3-0.3-0.8-0.3-1.1,0c-0.3,0.3-0.3,0.8,0,1.1C37.6,11.6,37.8,11.8,38,12z"/>
	<path fill="white" id="XMLID_81_" d="M11.9,12c3-3,6.9-4.9,11.1-5.3c4.1-0.4,8.3,0.6,11.8,2.8c0.4,0.2,0.8,0.1,1.1-0.2s0.1-0.8-0.2-1.1
		c-3.8-2.4-8.3-3.5-12.8-3c-4.5,0.5-8.8,2.5-12.1,5.7C7.3,14.4,5.2,19.1,5,24.2c-0.2,5,1.5,9.9,4.7,13.7c0.2,0.2,0.4,0.3,0.6,0.3
		c0.2,0,0.4-0.1,0.5-0.2c0.3-0.3,0.4-0.8,0.1-1.1c-3-3.5-4.5-8-4.3-12.6C6.8,19.6,8.7,15.2,11.9,12z"/>
	<path fill="white" id="XMLID_79_" d="M40.8,14c-0.4,0.2-0.5,0.7-0.2,1.1c2.2,3.5,3.2,7.7,2.8,11.8C42.9,31.1,41,35,38,38
		c-3.3,3.3-7.6,5.2-12.3,5.4c-4.6,0.2-9.1-1.3-12.6-4.3c-0.3-0.3-0.8-0.2-1.1,0.1c-0.3,0.3-0.2,0.8,0.1,1.1c3.6,3,8.1,4.7,12.8,4.7
		c0.3,0,0.5,0,0.8,0c5-0.2,9.8-2.3,13.3-5.8c3.2-3.2,5.3-7.5,5.7-12.1c0.5-4.5-0.6-9-3-12.8C41.6,13.9,41.1,13.8,40.8,14z"/>
</g>
</svg>
