<?xml version="1.0" encoding="utf-8"?>
<!-- Generator: Adobe Illustrator 19.0.0, SVG Export Plug-In . SVG Version: 6.00 Build 0)  -->
<svg version="1.1" id="Capa_1" xmlns="http://www.w3.org/2000/svg" xmlns:xlink="http://www.w3.org/1999/xlink" x="0px" y="0px"
	 viewBox="0 0 50 43.3" style="enable-background:new 0 0 50 43.3;" xml:space="preserve">
<g id="XMLID_1982_">
	<path fill="white" id="XMLID_1999_" d="M49.5,41.5L1.5,7.2C1.2,7,0.9,7,0.5,7.2C0.2,7.3,0,7.7,0,8v34.3c0,0.5,0.4,1,1,1h48h0c0.5,0,1-0.4,1-1
		C50,42,49.8,41.7,49.5,41.5L49.5,41.5z M33.2,41.3v-1c0-0.5-0.4-1-1-1s-1,0.4-1,1v1h-5.9v-2.9c0-0.5-0.4-1-1-1c-0.5,0-1,0.4-1,1
		v2.9h-5.9v-1c0-0.5-0.4-1-1-1c-0.5,0-1,0.4-1,1v1H9.8v-2.9c0-0.5-0.4-1-1-1c-0.5,0-1,0.4-1,1v2.9H2v-5.9h2.9c0.5,0,1-0.4,1-1
		s-0.4-1-1-1H2v-5.9h1c0.5,0,1-0.4,1-1c0-0.5-0.4-1-1-1H2v-5.9h2.9c0.5,0,1-0.4,1-1c0-0.5-0.4-1-1-1H2v-8l44,31.4L33.2,41.3
		L33.2,41.3z M33.2,41.3"/>
	<path fill="white" id="XMLID_1995_" d="M8.8,35.5h15.8c0.4,0,0.8-0.3,0.9-0.7c0.1-0.4,0-0.8-0.4-1.1L9.4,22.4c-0.3-0.2-0.7-0.2-1-0.1
		c-0.3,0.2-0.5,0.5-0.5,0.9v11.3C7.8,35,8.2,35.5,8.8,35.5L8.8,35.5z M9.8,25.1l11.8,8.4H9.8V25.1z M9.8,25.1"/>
	<path fill="white" id="XMLID_1992_" d="M15.9,24.7l4.1,2.9c0.2,0.1,0.4,0.2,0.6,0.2c0.3,0,0.6-0.1,0.8-0.4c0.3-0.4,0.2-1-0.2-1.4l-4.1-2.9
		c-0.4-0.3-1-0.2-1.4,0.2C15.4,23.8,15.5,24.4,15.9,24.7L15.9,24.7z M15.9,24.7"/>
	<path fill="white" id="XMLID_1989_" d="M22.3,29.2L22.3,29.2c0.2,0.1,0.4,0.2,0.6,0.2c0.3,0,0.6-0.1,0.8-0.4c0.3-0.4,0.2-1-0.2-1.4l0,0
		c-0.4-0.3-1-0.2-1.4,0.2C21.7,28.3,21.8,28.9,22.3,29.2L22.3,29.2z M22.3,29.2"/>
	<path fill="white" id="XMLID_1983_" d="M16.9,3.1l-0.7,0.7c-0.4,0.4-0.4,1,0,1.4L37,25.8c0.1,0.1,0.2,0.2,0.4,0.2l4.1,1.4c0.1,0,0.2,0.1,0.3,0.1
		c0.3,0,0.5-0.1,0.7-0.3c0.3-0.3,0.4-0.6,0.2-1l-1.4-4.1c0-0.1-0.1-0.3-0.2-0.4L23.6,4.2l0,0l0,0L20.4,1c-0.2-0.2-0.4-0.3-0.7-0.3
		c-0.3,0-0.5,0.1-0.7,0.3l-0.7,0.7l-1.4-1.4c-0.4-0.4-1-0.4-1.4,0c-0.4,0.4-0.4,1,0,1.4L16.9,3.1z M39.6,22.9l0.7,2.1l-2.1-0.7l0,0
		L39.6,22.9L39.6,22.9z M38.2,21.5l-1.4,1.4L21.5,7.6l1.4-1.4L38.2,21.5z M19.7,3.1l1.8,1.8l-1.4,1.4l-1.8-1.8L19.7,3.1z M19.7,3.1"
		/>
</g>
</svg>
